<?xml version="1.0" encoding="UTF-8" standalone="no"?>
<svg
   id="Ebene_2"
   viewBox="0 0 280.82538 103.39033"
   version="1.1"
   sodipodi:docname="GHGA_CMYK_Bright_Orange.svg"
   width="280.82538"
   height="103.39033"
   inkscape:version="1.2.2 (b0a8486, 2022-12-01)"
   xmlns:inkscape="http://www.inkscape.org/namespaces/inkscape"
   xmlns:sodipodi="http://sodipodi.sourceforge.net/DTD/sodipodi-0.dtd"
   xmlns="http://www.w3.org/2000/svg"
   xmlns:svg="http://www.w3.org/2000/svg">
  <sodipodi:namedview
     id="namedview291"
     pagecolor="#ffffff"
     bordercolor="#000000"
     borderopacity="0.25"
     inkscape:showpageshadow="2"
     inkscape:pageopacity="0.0"
     inkscape:pagecheckerboard="0"
     inkscape:deskcolor="#d1d1d1"
     showgrid="false"
     inkscape:zoom="0.56875103"
     inkscape:cx="119.56022"
     inkscape:cy="104.61519"
     inkscape:window-width="960"
     inkscape:window-height="847"
     inkscape:window-x="1920"
     inkscape:window-y="25"
     inkscape:window-maximized="0"
     inkscape:current-layer="Ebene_2" />
  <defs
     id="defs184">
    <style
       id="style182">.cls-1{fill:#e84614;}</style>
  </defs>
  <g
     id="g204"
     transform="translate(-9.1546226,18.360329)">
    <path
       class="cls-1"
       d="M 92.17,52.27 V 36.54 h -0.01 c -0.14,-4.18 -2.77,-6.88 -6.94,-7.55 v 15.73 h 0.01 c 0.14,4.18 2.77,6.88 6.94,7.55 z"
       id="path186" />
    <path
       class="cls-1"
       d="m 85.16,65.72 h -0.01 v 18.67 c 4.17,-0.67 6.8,-3.37 6.94,-7.54 H 92.1 V 58.18 c -4.17,0.67 -6.8,3.37 -6.94,7.54 z"
       id="path188" />
    <path
       class="cls-1"
       d="m 119.94,76.83 h 0.01 c 0.14,4.18 2.77,6.88 6.94,7.55 V 65.73 h -0.01 c -0.14,-4.18 -2.77,-6.88 -6.94,-7.55 z"
       id="path190" />
    <path
       class="cls-1"
       d="m 119.96,36.53 h -0.01 v 15.75 c -0.72,0.08 -1.44,0.16 -2.15,0.16 H 94.26 c -0.72,0 -1.51,-0.08 -2.15,-0.16 v 0 c 1.47,0.18 2.62,1.43 2.62,2.95 0,1.52 -1.14,2.77 -2.62,2.95 v 0 c 0.64,-0.07 1.44,-0.15 2.15,-0.15 h 23.54 c 0.72,0 1.43,0.08 2.15,0.16 v 0 c -1.53,-0.12 -2.73,-1.39 -2.73,-2.95 0,-1.56 1.21,-2.83 2.73,-2.94 v 0 c 4.17,-0.67 6.8,-3.37 6.94,-7.54 h 0.01 V 29 c -4.17,0.67 -6.8,3.37 -6.94,7.54 z"
       id="path192" />
    <path
       class="cls-1"
       d="m 215.94,34.39 -0.95,-3.02 c 0,0 -0.01,-0.03 -0.02,-0.04 v 0 c -0.19,-0.62 -0.49,-1.19 -0.9,-1.66 h -0.01 c -0.11,-0.14 -0.24,-0.26 -0.37,-0.38 -0.03,-0.03 -0.06,-0.06 -0.09,-0.08 -0.67,-0.54 -1.54,-0.88 -2.62,-0.88 -1.38,0 -2.32,0.48 -2.99,1.27 -0.11,0.12 -0.2,0.25 -0.29,0.39 -0.01,0.02 -0.03,0.04 -0.04,0.06 -0.1,0.16 -0.19,0.32 -0.28,0.5 -0.01,0.03 -0.03,0.05 -0.04,0.08 -0.06,0.12 -0.11,0.24 -0.16,0.36 -0.03,0.08 -0.07,0.15 -0.1,0.24 v 0 c 0,0 -0.04,0.1 -0.06,0.15 l -0.95,3.02 c 1.47,-0.33 3.11,-0.52 4.93,-0.52 1.82,0 3.46,0.2 4.93,0.52 z"
       id="path194" />
    <path
       class="cls-1"
       d="m 226.17,50.07 c 0,0 -1.47,-5.05 -2.24,-8.4 -0.95,-4.12 -4.72,-6.54 -7.98,-7.29 l 5.64,23.58 c 2.88,-1.28 5.45,-4.76 4.59,-7.9 z"
       id="path196" />
    <path
       class="cls-1"
       d="m 231.62,70 -0.04,-0.04 -0.09,-0.37 c -1.24,-4.54 -4.4,-6.73 -8.59,-6.24 h -0.15 c -1.57,0 -2.87,-1.23 -2.87,-2.8 0,-1.15 0.69,-2.14 1.67,-2.59 h 0.03 l -0.02,-0.09 c -0.4,0.1 -1.34,0.07 -1.92,0.07 0,0 -13.55,0.14 -17.81,0.02 -0.47,-0.01 -1,0.01 -1.35,-0.07 l 5.62,-23.51 c -3.26,0.74 -7.03,3.17 -7.98,7.29 -0.77,3.35 -2.24,8.4 -2.24,8.4 -0.86,3.12 1.67,6.57 4.52,7.87 0.97,0.45 1.64,1.43 1.64,2.57 0,1.57 -1.27,2.84 -2.84,2.84 -0.06,0 -0.12,0 -0.17,0 v 0 c -3.98,-0.39 -7.05,1.69 -8.1,5.87 l -0.47,1.69 v 0 l -3.69,13.41 c 4.2,0.51 7.37,-1.69 8.62,-6.24 l 0.09,-0.37 0.04,-0.04 3.5,-14.22 c 0.52,-0.08 1.16,-0.14 1.74,-0.14 h 20.3 c 0.58,0 1.28,0.06 1.86,0.14 v 0 l 3.66,13.32 v 0 l 0.47,1.69 c 1.06,4.18 4.12,6.25 8.11,5.86 l -3.53,-14.31 z"
       id="path198" />
    <path
       class="cls-1"
       d="m 66.76,36.74 c -0.25,-0.57 -3.91,-8.38 -13.41,-8.38 -9.59,0 -13.3,8.2 -13.39,8.41 -0.36,0.18 -11.62,5.81 -11.62,20.03 0,14.55 11.44,19.77 11.63,19.85 0.26,0.57 4.02,8.38 13.38,8.38 9.33,0 13.02,-7.53 13.39,-8.34 5.94,-2.76 8.76,-7.49 8.76,-13.52 V 58.05 H 57.58 c -3.16,0 -5.71,2.27 -5.71,5.34 h 17.05 v 2.69 c 0,3.87 -0.68,7.51 -2.18,10.55 -14.82,5.05 -26.4,0.15 -26.77,0 -7.55,-22.13 -0.18,-39.41 0,-39.85 0.36,-0.16 11.96,-5.07 26.8,0 1.35,2.87 0.86,3.6 1.17,6.16 0.54,4.52 4.3,6.34 7.83,6.34 l 1.07,-0.03 c 0,0 0.18,-3.17 -1.18,-5.69 -1.79,-3.32 -5.59,-5.52 -8.89,-6.82 z"
       id="path200" />
    <path
       class="cls-1"
       d="m 173.45,36.74 c -0.25,-0.57 -3.91,-8.38 -13.41,-8.38 -9.59,0 -13.3,8.2 -13.39,8.41 -0.36,0.18 -11.62,5.81 -11.62,20.03 0,14.55 11.44,19.77 11.63,19.85 0.26,0.57 4.02,8.38 13.38,8.38 9.33,0 13.02,-7.53 13.39,-8.34 5.94,-2.76 8.76,-7.49 8.76,-13.52 v -5.12 h -17.92 c -3.16,0 -5.71,2.27 -5.71,5.34 h 17.05 v 2.69 c 0,3.87 -0.68,7.51 -2.18,10.55 -14.82,5.05 -26.4,0.15 -26.77,0 -7.55,-22.13 -0.18,-39.41 0,-39.85 0.36,-0.16 11.96,-5.07 26.8,0 1.35,2.87 0.86,3.6 1.17,6.16 0.54,4.52 4.3,6.34 7.83,6.34 l 1.07,-0.03 c 0,0 0.18,-3.17 -1.18,-5.69 -1.79,-3.32 -5.59,-5.52 -8.89,-6.82 z"
       id="path202" />
  </g>
  <g
     id="g288"
     transform="translate(-9.1546226,18.360329)">
    <g
       id="g212">
      <polygon
         class="cls-1"
         points="246.44,49.09 247.6,49.09 247.6,45.97 248.89,45.97 248.89,44.97 245.19,44.97 245.19,45.97 246.44,45.97 "
         id="polygon206" />
      <polygon
         class="cls-1"
         points="253.27,44.97 252.11,44.97 252.11,49.09 253.27,49.09 253.27,47.54 254.6,47.54 254.6,49.09 255.77,49.09 255.77,44.97 254.6,44.97 254.6,46.52 253.27,46.52 "
         id="polygon208" />
      <polygon
         class="cls-1"
         points="262.06,47.45 262.06,46.55 260.41,46.55 260.41,45.93 262.29,45.93 262.29,44.97 259.3,44.97 259.3,49.09 262.38,49.09 262.38,48.13 260.41,48.13 260.41,47.45 "
         id="polygon210" />
    </g>
    <g
       id="g224">
      <polygon
         class="cls-1"
         points="246.37,59.05 245.21,59.05 245.21,63.17 246.37,63.17 246.37,61.63 247.7,61.63 247.7,63.17 248.87,63.17 248.87,59.05 247.7,59.05 247.7,60.61 246.37,60.61 "
         id="polygon214" />
      <path
         class="cls-1"
         d="m 254.6,61.54 c 0,0.13 -0.03,0.24 -0.09,0.34 -0.06,0.1 -0.14,0.18 -0.24,0.24 -0.1,0.06 -0.21,0.09 -0.34,0.09 -0.12,0 -0.22,-0.03 -0.32,-0.09 -0.1,-0.06 -0.17,-0.14 -0.23,-0.24 -0.05,-0.1 -0.08,-0.21 -0.08,-0.34 v -2.48 h -1.18 v 2.53 c 0,0.31 0.08,0.59 0.23,0.84 0.15,0.24 0.37,0.43 0.64,0.57 0.27,0.14 0.58,0.21 0.93,0.21 0.35,0 0.66,-0.07 0.93,-0.21 0.27,-0.14 0.48,-0.33 0.64,-0.57 0.15,-0.24 0.23,-0.52 0.23,-0.84 v -2.53 h -1.14 v 2.48 z"
         id="path216" />
      <path
         class="cls-1"
         d="m 260.85,60.85 -1.1,-1.8 h -1.02 v 4.12 h 1.12 v -1.1 c 0,-0.38 0,-0.71 -0.03,-0.98 0,-0.04 0,-0.09 -0.01,-0.13 l 0.82,1.3 h 0.39 l 0.85,-1.31 c 0,0.06 -0.01,0.12 -0.02,0.18 -0.02,0.28 -0.03,0.6 -0.03,0.95 v 1.1 h 1.12 v -4.12 h -0.98 l -1.12,1.8 z"
         id="path218" />
      <path
         class="cls-1"
         d="m 267.27,59.05 -1.64,4.12 h 1.13 l 0.25,-0.68 h 1.41 l 0.25,0.68 h 1.16 l -1.63,-4.12 h -0.94 z m 0.05,2.61 0.15,-0.41 c 0.04,-0.11 0.08,-0.21 0.11,-0.3 0.03,-0.09 0.06,-0.18 0.09,-0.26 0.02,-0.06 0.04,-0.12 0.06,-0.18 0.02,0.06 0.04,0.12 0.06,0.18 0.03,0.09 0.06,0.17 0.09,0.26 0.03,0.09 0.07,0.19 0.11,0.29 l 0.15,0.41 h -0.81 z"
         id="path220" />
      <path
         class="cls-1"
         d="m 275.42,59.05 v 1.29 c 0,0.13 0,0.24 0,0.35 0,0.11 0.01,0.21 0.02,0.32 0,0.11 0.02,0.22 0.04,0.33 v 0.06 l -1.71,-2.35 h -1.04 v 4.12 h 1.12 v -1.22 c 0,-0.13 0,-0.24 0,-0.34 0,-0.1 0,-0.19 -0.01,-0.28 0,-0.09 -0.01,-0.18 -0.02,-0.27 0,-0.06 -0.01,-0.13 -0.02,-0.19 l 1.68,2.3 h 1.05 v -4.12 h -1.12 z"
         id="path222" />
    </g>
    <g
       id="g238">
      <path
         class="cls-1"
         d="m 249.1,53.96 c 0,-0.09 -0.01,-0.15 -0.01,-0.2 h -1.99 v 0.85 h 0.92 c 0,0.07 -0.02,0.13 -0.05,0.19 -0.04,0.08 -0.09,0.16 -0.16,0.22 -0.07,0.06 -0.15,0.11 -0.24,0.14 -0.09,0.04 -0.2,0.05 -0.31,0.05 -0.16,0 -0.3,-0.03 -0.44,-0.09 -0.14,-0.06 -0.25,-0.14 -0.35,-0.24 -0.1,-0.1 -0.17,-0.22 -0.23,-0.36 -0.05,-0.14 -0.08,-0.29 -0.08,-0.45 0,-0.16 0.03,-0.32 0.08,-0.46 0.05,-0.14 0.13,-0.26 0.22,-0.36 0.09,-0.1 0.2,-0.18 0.33,-0.24 0.13,-0.06 0.27,-0.09 0.42,-0.09 0.14,0 0.26,0.02 0.37,0.05 0.11,0.04 0.22,0.08 0.31,0.14 0.1,0.06 0.19,0.13 0.27,0.21 l 0.69,-0.74 c -0.12,-0.13 -0.26,-0.24 -0.42,-0.34 -0.16,-0.1 -0.35,-0.18 -0.56,-0.24 -0.21,-0.06 -0.42,-0.09 -0.66,-0.09 -0.34,0 -0.64,0.05 -0.92,0.16 -0.28,0.11 -0.52,0.25 -0.72,0.45 -0.2,0.19 -0.36,0.42 -0.47,0.68 -0.11,0.26 -0.16,0.55 -0.16,0.86 0,0.31 0.05,0.59 0.15,0.85 0.1,0.26 0.24,0.49 0.43,0.68 0.19,0.19 0.42,0.34 0.69,0.45 0.27,0.11 0.58,0.16 0.92,0.16 0.29,0 0.55,-0.05 0.79,-0.14 0.24,-0.09 0.45,-0.22 0.62,-0.38 0.18,-0.16 0.31,-0.35 0.41,-0.58 0.1,-0.22 0.15,-0.47 0.15,-0.73 0,-0.04 0,-0.1 0,-0.18 0,-0.09 0,-0.17 -0.01,-0.26 z"
         id="path226" />
      <polygon
         class="cls-1"
         points="255.16,53.62 253.52,53.62 253.52,53 255.39,53 255.39,52.04 252.4,52.04 252.4,56.16 255.48,56.16 255.48,55.2 253.52,55.2 253.52,54.53 255.16,54.53 "
         id="polygon228" />
      <path
         class="cls-1"
         d="m 261.73,54.58 c 0.22,-0.12 0.39,-0.29 0.51,-0.5 0.12,-0.21 0.19,-0.45 0.19,-0.73 0,-0.25 -0.06,-0.48 -0.19,-0.68 -0.12,-0.2 -0.3,-0.35 -0.51,-0.46 -0.22,-0.11 -0.47,-0.17 -0.75,-0.17 h -1.9 v 4.12 h 1.09 v -1.4 h 0.32 l 0.79,1.4 h 1.31 l -0.91,-1.56 c 0,0 0.02,-0.01 0.04,-0.02 z m -1.55,-1.6 h 0.6 c 0.11,0 0.21,0.02 0.29,0.06 0.08,0.04 0.13,0.09 0.17,0.16 0.04,0.07 0.06,0.15 0.06,0.24 0,0.09 -0.02,0.18 -0.06,0.26 -0.04,0.07 -0.09,0.13 -0.16,0.17 -0.07,0.04 -0.15,0.06 -0.26,0.06 h -0.65 v -0.95 z"
         id="path230" />
      <path
         class="cls-1"
         d="m 267.75,53.84 -1.1,-1.8 h -1.02 v 4.12 h 1.12 v -1.1 c 0,-0.38 0,-0.71 -0.03,-0.98 0,-0.04 0,-0.09 -0.01,-0.13 l 0.82,1.3 h 0.39 l 0.85,-1.31 c 0,0.06 -0.01,0.12 -0.02,0.18 -0.02,0.28 -0.03,0.6 -0.03,0.95 v 1.1 h 1.12 v -4.12 h -0.98 l -1.12,1.8 z"
         id="path232" />
      <path
         class="cls-1"
         d="m 274.17,52.04 -1.64,4.12 h 1.13 l 0.25,-0.68 h 1.41 l 0.25,0.68 h 1.16 l -1.63,-4.12 h -0.94 z m 0.05,2.61 0.15,-0.41 c 0.04,-0.11 0.08,-0.21 0.11,-0.3 0.03,-0.09 0.06,-0.18 0.09,-0.26 0.02,-0.06 0.04,-0.12 0.06,-0.18 0.02,0.06 0.04,0.12 0.06,0.18 0.03,0.09 0.06,0.17 0.09,0.26 0.03,0.09 0.07,0.19 0.11,0.29 l 0.15,0.41 h -0.81 z"
         id="path234" />
      <path
         class="cls-1"
         d="m 282.32,52.04 v 1.29 c 0,0.13 0,0.24 0,0.35 0,0.11 0.01,0.21 0.02,0.32 0,0.11 0.02,0.22 0.04,0.33 v 0.06 l -1.71,-2.35 h -1.04 v 4.12 h 1.12 v -1.22 c 0,-0.13 0,-0.24 0,-0.34 0,-0.1 0,-0.19 -0.01,-0.28 0,-0.09 -0.01,-0.18 -0.02,-0.27 0,-0.06 -0.01,-0.13 -0.02,-0.19 l 1.68,2.3 h 1.05 v -4.12 h -1.12 z"
         id="path236" />
    </g>
    <g
       id="g254">
      <path
         class="cls-1"
         d="m 249.1,68.06 c 0,-0.09 -0.01,-0.15 -0.01,-0.2 h -1.99 v 0.85 h 0.92 c 0,0.07 -0.02,0.13 -0.05,0.19 -0.04,0.08 -0.09,0.16 -0.16,0.22 -0.07,0.06 -0.15,0.11 -0.24,0.14 -0.09,0.03 -0.2,0.05 -0.31,0.05 -0.16,0 -0.3,-0.03 -0.44,-0.09 -0.14,-0.06 -0.25,-0.14 -0.35,-0.24 -0.1,-0.1 -0.17,-0.22 -0.23,-0.36 -0.05,-0.14 -0.08,-0.29 -0.08,-0.45 0,-0.16 0.03,-0.32 0.08,-0.46 0.05,-0.14 0.13,-0.26 0.22,-0.36 0.09,-0.1 0.2,-0.18 0.33,-0.24 0.13,-0.06 0.27,-0.09 0.42,-0.09 0.14,0 0.26,0.02 0.37,0.05 0.11,0.04 0.22,0.08 0.31,0.14 0.1,0.06 0.19,0.13 0.27,0.21 l 0.69,-0.74 c -0.12,-0.13 -0.26,-0.24 -0.42,-0.34 -0.16,-0.1 -0.35,-0.18 -0.56,-0.24 -0.21,-0.06 -0.42,-0.09 -0.66,-0.09 -0.34,0 -0.64,0.05 -0.92,0.16 -0.28,0.11 -0.52,0.25 -0.72,0.45 -0.2,0.19 -0.36,0.42 -0.47,0.68 -0.11,0.26 -0.16,0.55 -0.16,0.86 0,0.31 0.05,0.59 0.15,0.85 0.1,0.26 0.24,0.49 0.43,0.68 0.19,0.19 0.42,0.34 0.69,0.45 0.27,0.11 0.58,0.16 0.92,0.16 0.29,0 0.55,-0.05 0.79,-0.14 0.24,-0.09 0.45,-0.22 0.62,-0.38 0.18,-0.16 0.31,-0.35 0.41,-0.58 0.1,-0.22 0.15,-0.47 0.15,-0.73 0,-0.04 0,-0.1 0,-0.18 0,-0.09 0,-0.17 -0.01,-0.26 z"
         id="path240" />
      <polygon
         class="cls-1"
         points="255.16,67.72 253.52,67.72 253.52,67.11 255.39,67.11 255.39,66.15 252.4,66.15 252.4,70.26 255.48,70.26 255.48,69.31 253.52,69.31 253.52,68.63 255.16,68.63 "
         id="polygon242" />
      <path
         class="cls-1"
         d="m 261.62,67.01 v 0.42 c 0,0.13 0,0.24 0,0.35 0,0.11 0.01,0.21 0.02,0.32 0,0.11 0.02,0.22 0.04,0.33 v 0.06 l -1.71,-2.35 h -1.04 v 4.12 h 1.12 v -1.22 c 0,-0.13 0,-0.24 0,-0.34 0,-0.1 0,-0.19 -0.01,-0.28 0,-0.09 -0.01,-0.18 -0.02,-0.27 0,-0.06 -0.01,-0.13 -0.02,-0.19 l 1.68,2.3 h 1.05 v -4.12 h -1.12 V 67 Z"
         id="path244" />
      <path
         class="cls-1"
         d="m 269.31,66.65 c -0.2,-0.19 -0.43,-0.34 -0.69,-0.45 -0.26,-0.11 -0.56,-0.16 -0.87,-0.16 -0.31,0 -0.61,0.05 -0.88,0.16 -0.27,0.11 -0.5,0.25 -0.69,0.45 -0.2,0.19 -0.35,0.42 -0.46,0.68 -0.11,0.26 -0.16,0.54 -0.16,0.86 0,0.32 0.05,0.59 0.16,0.86 0.11,0.26 0.26,0.49 0.46,0.68 0.2,0.19 0.43,0.34 0.69,0.45 0.27,0.11 0.56,0.16 0.88,0.16 0.32,0 0.61,-0.05 0.87,-0.16 0.26,-0.11 0.5,-0.25 0.69,-0.45 0.2,-0.19 0.35,-0.42 0.46,-0.68 0.11,-0.26 0.16,-0.55 0.16,-0.86 0,-0.31 -0.05,-0.59 -0.16,-0.85 -0.11,-0.26 -0.26,-0.48 -0.46,-0.68 z m -0.65,1.96 c -0.05,0.13 -0.12,0.24 -0.21,0.34 -0.09,0.1 -0.2,0.17 -0.32,0.22 -0.12,0.05 -0.25,0.08 -0.39,0.08 -0.14,0 -0.28,-0.03 -0.4,-0.08 -0.12,-0.05 -0.23,-0.12 -0.32,-0.22 -0.09,-0.1 -0.16,-0.21 -0.21,-0.34 -0.05,-0.13 -0.07,-0.27 -0.07,-0.42 0,-0.15 0.02,-0.3 0.07,-0.43 0.05,-0.13 0.12,-0.24 0.21,-0.34 0.09,-0.1 0.2,-0.17 0.32,-0.22 0.12,-0.05 0.25,-0.08 0.4,-0.08 0.15,0 0.27,0.03 0.39,0.08 0.12,0.05 0.23,0.12 0.32,0.22 0.09,0.1 0.16,0.21 0.21,0.34 0.05,0.13 0.07,0.27 0.07,0.42 0,0.15 -0.02,0.29 -0.07,0.42 z"
         id="path246" />
      <path
         class="cls-1"
         d="m 274.65,67.94 -1.1,-1.8 h -1.02 v 4.12 h 1.12 v -1.1 c 0,-0.38 0,-0.71 -0.03,-0.98 0,-0.04 0,-0.09 -0.01,-0.13 l 0.82,1.3 h 0.39 l 0.85,-1.31 c 0,0.06 -0.01,0.12 -0.02,0.18 -0.02,0.28 -0.03,0.6 -0.03,0.95 v 1.1 h 1.12 v -4.12 h -0.98 l -1.12,1.8 z"
         id="path248" />
      <polygon
         class="cls-1"
         points="282.75,67.72 281.11,67.72 281.11,67.11 282.99,67.11 282.99,66.15 280,66.15 280,70.26 283.08,70.26 283.08,69.31 281.11,69.31 281.11,68.63 282.75,68.63 "
         id="polygon250" />
      <rect
         class="cls-1"
         x="287.07001"
         y="68.080002"
         width="2.1800001"
         height="0.98000002"
         id="rect252" />
    </g>
    <g
       id="g270">
      <path
         class="cls-1"
         d="m 247.97,73.38 c -0.21,-0.12 -0.46,-0.18 -0.73,-0.18 h -1.82 v 4.12 h 1.16 v -1.28 h 0.66 c 0.27,0 0.51,-0.06 0.73,-0.19 0.21,-0.13 0.38,-0.3 0.51,-0.51 0.12,-0.22 0.19,-0.47 0.19,-0.74 0,-0.27 -0.06,-0.51 -0.19,-0.72 -0.12,-0.21 -0.29,-0.37 -0.51,-0.49 z m -0.56,1.46 c -0.04,0.06 -0.09,0.11 -0.15,0.14 -0.06,0.03 -0.14,0.05 -0.22,0.05 h -0.48 v -0.82 h 0.48 c 0.08,0 0.15,0.01 0.22,0.04 0.06,0.03 0.11,0.07 0.15,0.13 0.04,0.06 0.06,0.13 0.06,0.22 0,0.09 -0.02,0.17 -0.06,0.23 z"
         id="path256" />
      <polygon
         class="cls-1"
         points="253.27,73.2 252.11,73.2 252.11,77.32 253.27,77.32 253.27,75.77 254.6,75.77 254.6,77.32 255.77,77.32 255.77,73.2 254.6,73.2 254.6,74.75 253.27,74.75 "
         id="polygon258" />
      <polygon
         class="cls-1"
         points="262.06,74.78 260.41,74.78 260.41,74.16 262.29,74.16 262.29,73.2 259.3,73.2 259.3,77.32 262.38,77.32 262.38,76.36 260.41,76.36 260.41,75.68 262.06,75.68 "
         id="polygon260" />
      <path
         class="cls-1"
         d="m 268.52,74.06 v 0.42 c 0,0.13 0,0.24 0,0.35 0,0.11 0.01,0.21 0.02,0.32 0,0.11 0.02,0.22 0.04,0.33 v 0.06 l -1.71,-2.35 h -1.04 v 4.12 h 1.12 v -1.22 c 0,-0.13 0,-0.24 0,-0.34 0,-0.1 0,-0.19 -0.01,-0.28 0,-0.09 -0.01,-0.18 -0.02,-0.27 0,-0.06 -0.01,-0.13 -0.02,-0.19 l 1.68,2.3 h 1.05 v -4.12 h -1.12 v 0.86 z"
         id="path262" />
      <path
         class="cls-1"
         d="m 276.21,73.7 c -0.2,-0.19 -0.43,-0.34 -0.69,-0.45 -0.26,-0.11 -0.56,-0.16 -0.87,-0.16 -0.31,0 -0.61,0.05 -0.88,0.16 -0.27,0.11 -0.5,0.25 -0.69,0.45 -0.2,0.19 -0.35,0.42 -0.46,0.68 -0.11,0.26 -0.16,0.54 -0.16,0.86 0,0.32 0.05,0.59 0.16,0.86 0.11,0.26 0.26,0.49 0.46,0.68 0.2,0.19 0.43,0.34 0.69,0.45 0.27,0.11 0.56,0.16 0.88,0.16 0.32,0 0.61,-0.05 0.87,-0.16 0.26,-0.11 0.5,-0.25 0.69,-0.45 0.2,-0.19 0.35,-0.42 0.46,-0.68 0.11,-0.26 0.16,-0.55 0.16,-0.86 0,-0.31 -0.05,-0.59 -0.16,-0.85 -0.11,-0.26 -0.26,-0.48 -0.46,-0.68 z m -0.65,1.96 c -0.05,0.13 -0.12,0.24 -0.21,0.34 -0.09,0.1 -0.2,0.17 -0.32,0.22 -0.12,0.05 -0.25,0.08 -0.39,0.08 -0.14,0 -0.28,-0.03 -0.4,-0.08 -0.12,-0.05 -0.23,-0.12 -0.32,-0.22 -0.09,-0.1 -0.16,-0.21 -0.21,-0.34 -0.05,-0.13 -0.07,-0.27 -0.07,-0.42 0,-0.15 0.02,-0.3 0.07,-0.43 0.05,-0.13 0.12,-0.24 0.21,-0.34 0.09,-0.1 0.2,-0.17 0.32,-0.22 0.12,-0.05 0.25,-0.08 0.4,-0.08 0.15,0 0.27,0.03 0.39,0.08 0.12,0.05 0.23,0.12 0.32,0.22 0.09,0.1 0.16,0.21 0.21,0.34 0.05,0.13 0.07,0.27 0.07,0.42 0,0.15 -0.02,0.29 -0.07,0.42 z"
         id="path264" />
      <path
         class="cls-1"
         d="m 281.55,75 -1.1,-1.8 h -1.02 v 4.12 h 1.12 v -1.1 c 0,-0.38 0,-0.71 -0.03,-0.98 0,-0.04 0,-0.09 -0.01,-0.13 l 0.82,1.3 h 0.39 l 0.85,-1.31 c 0,0.06 -0.01,0.12 -0.02,0.18 -0.02,0.28 -0.03,0.6 -0.03,0.95 v 1.1 h 1.12 v -4.12 h -0.98 l -1.12,1.8 z"
         id="path266" />
      <polygon
         class="cls-1"
         points="289.65,75.68 289.65,74.78 288.01,74.78 288.01,74.16 289.89,74.16 289.89,73.2 286.9,73.2 286.9,77.32 289.98,77.32 289.98,76.36 288.01,76.36 288.01,75.68 "
         id="polygon268" />
    </g>
    <g
       id="g286">
      <path
         class="cls-1"
         d="m 246.57,80.25 -1.64,4.12 h 1.13 l 0.25,-0.68 h 1.41 l 0.25,0.68 h 1.16 l -1.63,-4.12 h -0.94 z m 0.05,2.61 0.15,-0.41 c 0.04,-0.11 0.08,-0.21 0.11,-0.3 0.03,-0.09 0.06,-0.18 0.09,-0.26 0.02,-0.06 0.04,-0.12 0.06,-0.18 0.02,0.06 0.04,0.12 0.06,0.18 0.03,0.09 0.06,0.17 0.09,0.26 0.03,0.09 0.07,0.19 0.11,0.29 l 0.15,0.41 h -0.81 z"
         id="path272" />
      <path
         class="cls-1"
         d="m 254.83,82.79 c 0.22,-0.12 0.39,-0.29 0.51,-0.5 0.12,-0.21 0.19,-0.45 0.19,-0.73 0,-0.25 -0.06,-0.48 -0.19,-0.68 -0.12,-0.2 -0.3,-0.35 -0.51,-0.46 -0.22,-0.11 -0.47,-0.17 -0.75,-0.17 h -1.9 v 4.12 h 1.09 v -1.4 h 0.32 l 0.79,1.4 h 1.31 l -0.91,-1.56 c 0,0 0.02,-0.01 0.04,-0.02 z m -1.55,-1.6 h 0.6 c 0.11,0 0.21,0.02 0.29,0.06 0.08,0.04 0.13,0.09 0.17,0.16 0.04,0.07 0.06,0.15 0.06,0.24 0,0.09 -0.02,0.18 -0.06,0.26 -0.04,0.07 -0.09,0.13 -0.16,0.17 -0.07,0.04 -0.15,0.06 -0.26,0.06 h -0.65 v -0.95 z"
         id="path274" />
      <path
         class="cls-1"
         d="m 260.44,81.5 c 0.09,-0.09 0.2,-0.17 0.33,-0.21 0.13,-0.05 0.26,-0.07 0.41,-0.07 0.13,0 0.24,0.02 0.34,0.05 0.1,0.03 0.2,0.08 0.28,0.14 0.08,0.06 0.16,0.13 0.22,0.2 l 0.7,-0.81 c -0.13,-0.14 -0.28,-0.26 -0.44,-0.35 -0.16,-0.09 -0.34,-0.17 -0.53,-0.21 -0.19,-0.05 -0.38,-0.07 -0.57,-0.07 -0.33,0 -0.63,0.05 -0.9,0.16 -0.27,0.11 -0.51,0.25 -0.71,0.45 -0.2,0.19 -0.36,0.42 -0.47,0.68 -0.11,0.26 -0.17,0.55 -0.17,0.86 0,0.31 0.05,0.6 0.16,0.86 0.11,0.26 0.26,0.49 0.46,0.68 0.2,0.19 0.43,0.34 0.7,0.44 0.27,0.11 0.57,0.16 0.89,0.16 0.2,0 0.41,-0.02 0.61,-0.07 0.2,-0.05 0.39,-0.12 0.55,-0.2 0.17,-0.09 0.3,-0.18 0.4,-0.29 l -0.55,-0.88 c -0.07,0.07 -0.15,0.14 -0.24,0.19 -0.09,0.06 -0.19,0.11 -0.3,0.14 -0.11,0.04 -0.22,0.05 -0.34,0.05 -0.17,0 -0.33,-0.03 -0.47,-0.08 -0.14,-0.05 -0.26,-0.12 -0.36,-0.21 -0.1,-0.09 -0.18,-0.2 -0.23,-0.34 -0.05,-0.13 -0.08,-0.28 -0.08,-0.44 0,-0.16 0.03,-0.33 0.08,-0.46 0.05,-0.13 0.13,-0.25 0.22,-0.34 z"
         id="path276" />
      <polygon
         class="cls-1"
         points="267.07,80.25 265.91,80.25 265.91,84.37 267.07,84.37 267.07,82.83 268.4,82.83 268.4,84.37 269.57,84.37 269.57,80.25 268.4,80.25 268.4,81.8 267.07,81.8 "
         id="polygon278" />
      <polygon
         class="cls-1"
         points="274.06,83.41 273.34,83.41 273.34,84.37 275.93,84.37 275.93,83.41 275.22,83.41 275.22,81.2 275.93,81.2 275.93,80.25 273.34,80.25 273.34,81.2 274.06,81.2 "
         id="polygon280" />
      <path
         class="cls-1"
         d="m 281.8,82.17 c -0.06,0.16 -0.11,0.29 -0.14,0.4 -0.04,0.11 -0.07,0.21 -0.1,0.32 v 0 c -0.02,-0.05 -0.03,-0.11 -0.05,-0.16 -0.02,-0.08 -0.05,-0.16 -0.08,-0.25 -0.03,-0.09 -0.07,-0.19 -0.12,-0.31 l -0.71,-1.92 h -1.18 l 1.64,4.12 h 0.93 l 1.65,-4.12 h -1.15 l -0.7,1.92 z"
         id="path282" />
      <polygon
         class="cls-1"
         points="289.65,82.73 289.65,81.83 288.01,81.83 288.01,81.21 289.89,81.21 289.89,80.25 286.9,80.25 286.9,84.37 289.98,84.37 289.98,83.41 288.01,83.41 288.01,82.73 "
         id="polygon284" />
    </g>
  </g>
  <text
     xml:space="preserve"
     style="font-style:normal;font-size:6.66667px;font-family:'Arial Narrow';-inkscape-font-specification:'Arial Narrow, Condensed';fill:#000000;font-weight:normal;font-stretch:condensed;font-variant:normal;font-variant-ligatures:normal;font-variant-caps:normal;font-variant-numeric:normal;font-variant-east-asian:normal"
     x="30.280231"
     y="18.082954"
     id="text2887"><tspan
       sodipodi:role="line"
       id="tspan2885"
       x="30.280231"
       y="18.082954"
       style="font-style:normal;font-variant:normal;font-weight:normal;font-stretch:condensed;font-size:6.66666667px;font-family:'Arial Narrow';-inkscape-font-specification:'Arial Narrow, Condensed';font-variant-ligatures:normal;font-variant-caps:normal;font-variant-numeric:normal;font-variant-east-asian:normal">SUPPORTED BY THE</tspan></text>
</svg>
