<?xml version="1.0" encoding="UTF-8" standalone="no"?>
<!-- Created with Inkscape (http://www.inkscape.org/) -->

<svg
   xmlns:dc="http://purl.org/dc/elements/1.1/"
   xmlns:cc="http://creativecommons.org/ns#"
   xmlns:rdf="http://www.w3.org/1999/02/22-rdf-syntax-ns#"
   xmlns:svg="http://www.w3.org/2000/svg"
   xmlns="http://www.w3.org/2000/svg"
   xmlns:sodipodi="http://sodipodi.sourceforge.net/DTD/sodipodi-0.dtd"
   xmlns:inkscape="http://www.inkscape.org/namespaces/inkscape"
   width="76.817329mm"
   height="54.278755mm"
   viewBox="0 0 76.817329 54.278755"
   version="1.1"
   id="svg949"
   inkscape:version="0.92.2 (unknown)"
   sodipodi:docname="logo-white2.svg">
  <defs
     id="defs943" />
  <sodipodi:namedview
     id="base"
     pagecolor="#ffffff"
     bordercolor="#666666"
     borderopacity="1.0"
     inkscape:pageopacity="0.0"
     inkscape:pageshadow="2"
     inkscape:zoom="2.5539062"
     inkscape:cx="158.83579"
     inkscape:cy="58.124442"
     inkscape:document-units="mm"
     inkscape:current-layer="layer1"
     showgrid="false"
     inkscape:window-width="1871"
     inkscape:window-height="1056"
     inkscape:window-x="49"
     inkscape:window-y="24"
     inkscape:window-maximized="1" />
  <metadata
     id="metadata946">
    <rdf:RDF>
      <cc:Work
         rdf:about="">
        <dc:format>image/svg+xml</dc:format>
        <dc:type
           rdf:resource="http://purl.org/dc/dcmitype/StillImage" />
        <dc:title></dc:title>
      </cc:Work>
    </rdf:RDF>
  </metadata>
  <g
     inkscape:label="Layer 1"
     inkscape:groupmode="layer"
     id="layer1"
     transform="translate(-18.985437,-102.02948)">
    <g
       id="g1663"
       transform="matrix(0.94083167,0,0,0.94083167,3.7691702,7.6609976)"
       style="stroke-width:1.06288934">
      <g
         id="flowRoot969-5"
         style="font-style:normal;font-variant:normal;font-weight:normal;font-stretch:normal;font-size:13.33333302px;line-height:125%;font-family:Helvetica;-inkscape-font-specification:'Helvetica, Normal';font-variant-ligatures:normal;font-variant-caps:normal;font-variant-numeric:normal;font-feature-settings:normal;text-align:start;letter-spacing:0px;word-spacing:0px;writing-mode:lr-tb;text-anchor:start;fill:#e6e6e6;fill-opacity:1;stroke:none;stroke-width:0.57389253px;stroke-linecap:butt;stroke-linejoin:miter;stroke-opacity:1"
         transform="matrix(0.49002701,0,0,0.49002701,-429.04833,-44.396026)"
         aria-label="Kipoi">
        <g
           id="g1722"
           style="fill:#ffffff;stroke-width:0.57389253px">
          <path
             d="m 958.32598,353.24309 -22.4,-32.256 22.176,-22.176 h -8.96 l -27.104,27.552 v -27.552 h -6.944 v 36.13708 18.29492 h 6.944 v -19.04 l 8.88533,-8.88533 19.18933,27.92533 z"
             style="font-size:74.66666412px;line-height:125%;fill:#ffffff;fill-opacity:1;stroke-width:0.57389253px"
             id="path1613"
             inkscape:connector-curvature="0"
             sodipodi:nodetypes="cccccccccccccc" />
          <path
             d="m 970.49431,353.24309 v -39.12533 h -6.19733 v 39.12533 z m 0.82134,-45.024 v -7.76533 h -7.76534 v 7.76533 z"
             style="font-size:74.66666412px;line-height:125%;fill:#ffffff;fill-opacity:1;stroke-width:0.57389253px"
             id="path1615"
             inkscape:connector-curvature="0" />
          <path
             d="m 1014.746,334.05376 c 0,-13.14133 -6.4214,-21.056 -16.80002,-21.056 -5.30133,0 -9.55733,2.38933 -12.46933,7.01867 v -5.89867 h -5.67467 v 55.40266 h 6.19733 v -20.98133 c 3.28534,4.032 6.944,5.824 12.02134,5.824 10.07995,0 16.72535,-7.84 16.72535,-20.30933 z m -6.496,-0.14933 c 0,8.88533 -4.5547,14.63466 -11.34935,14.63466 -6.57067,0 -10.90134,-5.376 -10.90134,-14.56 0,-9.184 4.33067,-15.15733 10.90134,-15.15733 6.86935,0 11.34935,5.74933 11.34935,15.08267 z"
             style="font-size:74.66666412px;line-height:125%;fill:#ffffff;fill-opacity:1;stroke-width:0.57389253px"
             id="path1617"
             inkscape:connector-curvature="0" />
          <path
             d="m 1055.3378,333.97909 c 0,-13.51466 -6.496,-20.98133 -17.7707,-20.98133 -10.976,0 -17.6213,7.54133 -17.6213,20.68267 0,13.14133 6.5707,20.68266 17.696,20.68266 10.976,0 17.696,-7.54133 17.696,-20.384 z m -6.496,-0.0747 c 0,9.184 -4.3307,14.70933 -11.2,14.70933 -6.944,0 -11.2,-5.45067 -11.2,-14.93333 0,-9.408 4.256,-14.93334 11.2,-14.93334 7.0187,0 11.2,5.45067 11.2,15.15734 z"
             style="font-size:74.66666412px;line-height:125%;fill:#ffffff;fill-opacity:1;stroke-width:0.57389253px"
             id="path1619"
             inkscape:connector-curvature="0" />
          <path
             d="m 1070.2443,353.24309 v -39.12533 h -6.1973 v 39.12533 z m 0.8213,-45.024 v -7.76533 h -7.7653 v 7.76533 z"
             style="font-size:74.66666412px;line-height:125%;fill:#ffffff;fill-opacity:1;stroke-width:0.57389253px"
             id="path1621"
             inkscape:connector-curvature="0" />
        </g>
      </g>
      <path
         style="fill:#ffffff;fill-opacity:1;stroke-width:1.06288958"
         d="m 94.468571,135.73095 c -2.976709,8.6e-4 -5.182768,0.47334 -7.455996,1.5968 -1.117207,0.55214 -3.705186,2.3259 -4.684654,3.21078 -0.304074,0.27472 -0.593134,0.49948 -0.642356,0.49948 -0.04922,0 -0.644595,-0.37798 -1.323046,-0.83995 -2.242085,-1.52669 -3.575701,-2.03995 -7.577954,-3.30254 -1.448047,-0.45682 -1.958537,-0.5852 -3.343,-0.79559 -0.445543,0.0108 -1.611224,-0.32408 -4.38107,0.13471 -1.661345,0.18573 -0.803379,0.0813 -3.201531,0.55738 -2.553733,0.50693 -5.112332,2.10659 -7.284798,3.3477 -0.718831,0.41066 -1.382839,0.74665 -1.475575,0.74665 -0.09274,0 -0.528191,-0.22859 -0.967682,-0.50797 -1.337377,-0.85019 -4.07317,-2.17759 -5.196708,-2.52143 -3.27737,-1.003 -7.448573,-1.3402 -10.546066,-0.85254 -2.130822,0.33548 -4.591526,1.03914 -6.467321,1.84941 -0.850207,0.36726 -1.634956,0.66663 -1.743889,0.66527 -0.108938,-0.001 -0.871485,-0.48704 -1.69456,-1.07927 -1.604715,-1.15465 -1.65117,-1.15854 -1.839665,-0.15377 -0.07261,0.38702 -0.03894,0.56169 0.126046,0.65402 0.123811,0.0693 0.581317,0.40755 1.016681,0.75168 l 0.791575,0.62571 -1.118784,0.59561 c -1.889287,1.00581 -3.239757,1.60987 -4.859673,2.17373 -0.853955,0.29724 -1.574454,0.56224 -1.601105,0.5889 -0.02665,0.0266 -0.0074,0.15533 0.04269,0.28596 0.08226,0.21437 0.167535,0.21511 0.875516,0.007 1.849298,-0.54223 2.736335,-0.89421 4.987112,-1.97891 l 2.383021,-1.14844 0.817018,0.61686 c 1.575293,1.18935 3.679498,2.57171 5.015783,3.29513 l 1.348648,0.7301 c 0,0 1.039562,0.46489 2.985181,1.28137 0,0 2.542592,0.57891 4.38196,0.61349 2.067853,0.0389 3.232253,-0.092 5.315787,-0.75578 1.983743,-0.63199 2.845148,-1.00855 4.769012,-2.08475 0.906849,-0.50728 1.694143,-0.92234 1.749542,-0.92234 0.0554,0 1.004555,0.57474 2.109226,1.2772 1.40848,0.89564 0.903509,0.58683 1.849569,1.24004 1.343202,0.66425 2.95455,1.62101 2.95455,1.62101 l 1.139615,0.48781 c 3.40991,1.45962 7.334703,1.63834 10.91598,0.49708 2.642425,-0.84207 5.708994,-2.6235 7.771611,-4.51468 l 1.023516,-0.93845 1.020141,0.72796 c 4.962532,3.54119 7.848388,4.91546 10.302657,4.90622 1.198169,-0.005 2.173554,-0.44201 2.173554,-0.97493 0,-0.36741 -0.04122,-0.38652 -0.834036,-0.38652 h -0.834032 l 8.6e-4,-3.82898 c 4.3e-4,-2.10594 0.04423,-4.58448 0.09744,-5.50786 l 0.09675,-1.67888 0.986853,-0.16904 c 0.542772,-0.093 1.093577,-0.27577 1.224021,-0.40621 0.21512,-0.21512 0.103784,-0.23712 -1.198027,-0.23673 z m -1.981311,9.85496 c -0.07819,1.89994 0.279607,2.03134 -0.65498,1.81982 -0.496433,-0.11236 -1.705998,-0.55906 -2.459561,-0.9187 l -0.964475,-0.4603 v -4.01913 -4.01913 l 0.871945,-0.38626 c 0.47957,-0.21245 1.349619,-0.48434 1.933446,-0.60421 0.308291,-0.0766 -0.0039,-0.004 0.942346,-0.2141 0.605251,-0.12993 0.519809,-0.35304 0.456805,1.1226 l -0.09188,2.15207 c 0,0 -0.169582,3.2885 -0.03366,5.52734 z m -6.224148,-0.96965 c -1.606362,-1.22359 -2.063825,-1.58076 -2.518248,-1.88521 l -0.948167,-0.74146 1.782202,-1.39632 c 0.980208,-0.76798 2.003977,-1.5347 2.275038,-1.70383 l 0.49284,-0.30749 0.0098,1.94833 c 0.0054,1.07159 0.05646,1.76213 0.07794,3.16148 0.08218,2.23376 0.197359,2.00355 -1.171454,0.9245 z m -8.924753,-0.15985 -1.440607,0.99102 -0.04054,-1.25694 c -0.02231,-0.69132 0.01182,-1.84953 0.07582,-2.57381 l 0.116344,-1.31686 2.043373,0.99125 2.043368,0.99126 -0.678584,0.59153 c -0.373224,0.32535 -1.326863,1.03749 -2.119194,1.58255 z m -2.691661,1.56514 c -0.974941,0.49044 -3.49491,1.38546 -3.900807,1.38546 -0.244879,0 -0.259537,-0.29089 -0.209468,-4.15758 0.02962,-2.28667 0.104635,-4.20836 0.166727,-4.27043 0.221104,-0.22103 2.64929,0.34047 4.625941,1.06971 0.14204,0.0524 0.189556,0.75475 0.189556,2.80207 v 2.73215 z m -4.895737,-2.28681 -0.01217,3.82391 -2.000546,-0.002 c -1.100296,-10e-4 -2.093769,-0.0614 -2.20771,-0.13357 -0.169285,-0.10724 -0.196551,-0.89524 -0.149108,-4.30939 0.03194,-2.29798 0.09331,-4.2134 0.136393,-4.25648 0.171601,-0.1716 2.150573,-0.27749 3.253865,-0.17411 l 1.170306,0.10967 -0.08942,0.55919 c -0.04918,0.30756 -0.0949,2.27995 -0.1016,4.38311 z m -5.226411,-0.49791 c 0,1.25105 0.01943,2.04369 0.08397,2.92374 0.06163,1.31839 0.123377,1.25212 -1.016405,0.82385 -0.754187,-0.35012 -0.489152,-0.18687 -1.41298,-0.57443 l -1.679687,-0.70464 0.04118,-2.81916 0.04118,-2.81916 1.516428,-0.48721 c 0.834036,-0.26797 1.770433,-0.53441 2.080886,-0.5921 l 0.486521,-0.0937 -0.03159,1.02854 c -0.01767,0.57472 -0.109527,2.06327 -0.109527,3.31432 z m -5.345408,1.66133 c -0.396166,-0.22806 -1.393219,-0.86576 -2.215671,-1.4171 l -1.495369,-1.00244 1.950296,-0.93953 2.161827,-1.03972 0.0178,1.6463 c 0.0092,0.85233 0.01866,1.73846 0.0245,2.12176 0.01427,0.93198 -0.04724,0.85878 -0.443402,0.63073 z m -9.134836,-2.1264 c -0.666328,0.38434 -1.382838,0.76394 -1.59225,0.84356 l -0.380742,0.14475 v -1.81595 c 0,-0.99878 0.0386,-1.81596 0.08579,-1.81596 0.193425,0 3.098705,1.77846 3.098705,1.89686 0,0.0263 -0.545178,0.36241 -1.211503,0.74674 z m -3.830617,1.73658 c -1.155506,0.38097 -2.913611,0.76938 -3.505884,0.77452 -0.154872,0.001 -0.06034,-6.75697 0.09671,-6.91402 0.1664,-0.1664 2.710006,0.54429 4.136479,1.15575 l 0.675385,0.2895 v 2.11589 2.11588 z m -4.359728,-2.06213 v 2.8823 l -1.09941,-0.0933 c -0.604675,-0.0513 -1.594146,-0.20522 -2.19882,-0.34199 l -1.099411,-0.24867 8.6e-4,-2.2961 c 4.3e-4,-1.26286 0.04458,-2.75672 0.09775,-3.31969 l 0.09667,-1.02359 h 1.703006 c 0.936655,0 1.924144,0.0442 2.194423,0.0983 0.48512,0.097 0.490222,0.10702 0.398066,0.77938 -0.05133,0.37461 -0.09334,1.97813 -0.09334,3.5634 z m -5.224257,-0.68792 c -0.0039,1.43869 -0.04913,2.61582 -0.100122,2.61583 -0.05098,2e-5 -0.921034,-0.4185 -1.933442,-0.93004 L 32.755397,142.514 v -1.92473 -1.92474 l 1.478515,-0.25238 c 0.813183,-0.13881 0.962201,-0.20652 1.759549,-0.26998 0.827828,-0.0918 0.886018,-0.26536 0.818604,0.41342 -0.06778,1.17441 -0.178071,1.68985 -0.182361,3.2027 z m -5.352823,-0.20079 c -0.229361,-0.15049 -0.810819,-0.50836 -1.292135,-0.79527 -0.481315,-0.28691 -0.908589,-0.57581 -0.949494,-0.642 -0.05944,-0.0962 2.391489,-1.14804 2.671827,-1.14804 0.04088,0 0.01887,0.62332 0.04729,1.2697 0.02841,0.64638 -0.0021,1.44651 0.01479,1.56036 0.02274,0.15438 -0.181243,-0.0407 -0.492264,-0.24475 z"
         id="path971-8"
         inkscape:connector-curvature="0"
         sodipodi:nodetypes="cscscsccscscssccsccccccscssccsccsscscccccscccsscccccscccssccccccscccccccccccccccccccccccscccscccccccscccccccccccccccscccccccscscccssscccccccccccccccccsccccccsccccccccccscccc" />
      <path
         sodipodi:nodetypes="ccccccscccccscscccccssssscccccscscccscc"
         style="fill:#00ab4e;fill-opacity:1;stroke-width:1.06288958"
         d="m 73.040268,132.80611 c -0.174603,-0.83432 -0.848325,-2.84402 -1.11455,-3.32469 l -0.19815,-0.35775 -0.528453,0.66104 c -1.09163,1.36549 -1.944502,3.33122 -1.946011,4.48523 -0.0013,0.984 0.463361,2.01633 1.122911,2.49483 0.325278,0.23599 0.736588,0.42907 0.914027,0.42907 0.388441,0 1.174355,-1.10094 1.391526,-1.42054 0.448599,-0.66017 0.592458,-1.85019 0.3587,-2.96719 z m -4.386886,3.02295 c -0.07024,-0.1251 -0.31326,-0.68929 -0.540042,-1.25375 -0.226782,-0.56446 -0.551928,-1.20376 -0.722545,-1.42066 -0.496137,-0.63074 -1.811149,-1.38663 -3.249077,-1.86762 -1.479216,-0.4948 -4.695809,-1.16813 -4.848923,-1.01502 -0.280522,0.28053 2.028801,4.60625 2.852391,5.34297 0.178248,0.15945 0.490386,0.55166 0.693646,0.87159 0.790801,1.2447 2.833237,1.69202 4.631911,1.01444 1.143221,-0.43066 1.553727,-1.01101 1.182639,-1.67195 z m -7.71669,12.00374 c -0.656618,-1.41249 -3.30623,-1.33094 -3.890027,-1.23601 -0.583797,0.0949 -1.300311,0.31463 -1.59225,0.4882 -1.353075,0.80448 -2.64619,2.41312 -3.995044,4.96984 -0.713376,1.35219 -1.919072,3.98063 -1.919072,4.18361 0,0.30838 4.24494,-0.46972 5.841922,-1.07082 1.67602,-0.63085 3.449367,-1.63032 4.171341,-2.35098 1.244262,-1.242 1.628959,-2.62819 1.38313,-4.98384 z m -20.327603,0.27834 c -0.419812,-1.31471 -1.231784,-2.00426 -1.966115,-1.66968 -0.308596,0.14061 -0.405631,0.13752 -0.456311,-0.0145 -0.03542,-0.10621 -0.221787,-0.35053 -0.414181,-0.54292 -0.298301,-0.29831 -0.50522,-0.34982 -1.405131,-0.34982 -2.227354,0 -3.743064,1.3205 -5.811617,5.06312 -0.317542,0.57453 -0.577345,1.07939 -0.577345,1.12194 0,0.15005 2.587674,-0.1076 3.599829,-0.35844 1.155291,-0.28631 2.837922,-1.00368 3.268777,-1.3936 0.270347,-0.24466 0.297686,-0.24283 0.49976,0.0335 0.523936,0.66735 0.99977,3.26724 1.13581,3.26724 0.188659,0 1.325591,-1.72246 1.73479,-2.62822 0.403125,-0.89231 0.570089,-1.97007 0.391734,-2.52862 z"
         id="path973-6"
         inkscape:connector-curvature="0" />
    </g>
  </g>
</svg>
