<?xml version="1.0" encoding="UTF-8" standalone="no"?>
<svg
   xmlns:dc="http://purl.org/dc/elements/1.1/"
   xmlns:cc="http://creativecommons.org/ns#"
   xmlns:rdf="http://www.w3.org/1999/02/22-rdf-syntax-ns#"
   xmlns:svg="http://www.w3.org/2000/svg"
   xmlns="http://www.w3.org/2000/svg"
   id="svg3026"
   version="1.1"
   viewBox="0 0 35.580631 24.431665"
   height="24.431665mm"
   width="35.580631mm">
  <defs
     id="defs3020" />
  <metadata
     id="metadata3023">
    <rdf:RDF>
      <cc:Work
         rdf:about="">
        <dc:format>image/svg+xml</dc:format>
        <dc:type
           rdf:resource="http://purl.org/dc/dcmitype/StillImage" />
        <dc:title></dc:title>
      </cc:Work>
    </rdf:RDF>
  </metadata>
  <g
     transform="translate(-48.764119,-89.738962)"
     id="layer1">
    <g
       transform="matrix(2.7547165,0,0,2.7547165,-34.391493,-487.60201)"
       id="g2868">
      <path
         id="path971-7-8-2-7"
         d="m 30.40286,210.6944 c 0.500831,1.5e-4 0.872,0.0796 1.254471,0.26866 0.187971,0.0929 0.623398,0.39134 0.788195,0.54022 0.05116,0.0463 0.0998,0.0841 0.108077,0.0841 0.0083,0 0.108457,-0.0636 0.222603,-0.14133 0.377231,-0.25686 0.601612,-0.34322 1.274991,-0.55566 0.243635,-0.0769 0.329525,-0.0984 0.562461,-0.13385 0.07497,0.001 0.271088,-0.0545 0.737115,0.0226 0.279522,0.0312 0.13517,0.0141 0.538658,0.0938 0.429665,0.0853 0.86015,0.35443 1.225668,0.56326 0.120942,0.069 0.232663,0.12555 0.248266,0.12555 0.01561,0 0.08887,-0.0385 0.162813,-0.0855 0.225014,-0.14305 0.685311,-0.36638 0.874347,-0.42424 0.551418,-0.16875 1.253224,-0.22548 1.774376,-0.14344 0.358512,0.0564 0.772526,0.17483 1.088127,0.31117 0.143049,0.0617 0.275083,0.1122 0.29341,0.11192 0.01833,-1.7e-4 0.146629,-0.082 0.285111,-0.18158 0.269994,-0.19428 0.277809,-0.19494 0.309525,-0.0259 0.01223,0.0651 0.0066,0.0945 -0.02122,0.11008 -0.02084,0.0113 -0.0978,0.0686 -0.171055,0.12654 l -0.133188,0.10531 0.188235,0.10025 c 0.317875,0.16922 0.54509,0.27086 0.817641,0.36572 0.143678,0.0501 0.264903,0.0946 0.269386,0.0991 0.0045,0.004 0.0012,0.0261 -0.0072,0.0481 -0.01378,0.036 -0.02819,0.0361 -0.147306,10e-4 -0.311144,-0.0913 -0.460387,-0.15046 -0.839082,-0.33295 l -0.400944,-0.19323 -0.137462,0.10376 c -0.265044,0.2001 -0.619077,0.43269 -0.843906,0.55439 l -0.226911,0.12289 c 0,0 -0.174907,0.0782 -0.502256,0.21559 0,0 -0.427792,0.0974 -0.737266,0.1032 -0.347916,0.007 -0.543826,-0.0155 -0.894382,-0.1271 -0.333765,-0.10629 -0.478696,-0.1697 -0.802387,-0.35077 -0.152577,-0.0853 -0.28504,-0.15519 -0.29436,-0.15519 -0.0093,0 -0.169017,0.0967 -0.354879,0.21489 -0.236976,0.15069 -0.152015,0.0987 -0.311189,0.20864 -0.225994,0.11177 -0.497103,0.27274 -0.497103,0.27274 l -0.191741,0.0821 c -0.573717,0.24557 -1.234064,0.27564 -1.836616,0.0837 -0.444587,-0.14168 -0.960539,-0.44141 -1.307574,-0.7596 l -0.172207,-0.15789 -0.171639,0.12246 c -0.834945,0.59581 -1.320491,0.82703 -1.733423,0.82547 -0.201592,-6.7e-4 -0.365701,-0.0744 -0.365701,-0.16403 0,-0.0619 0.0069,-0.065 0.140331,-0.065 h 0.140331 l -1.45e-4,-0.64424 c -7.3e-5,-0.35432 -0.0075,-0.77133 -0.01639,-0.92669 l -0.01628,-0.28247 -0.166037,-0.0284 c -0.09132,-0.0156 -0.183994,-0.0464 -0.205943,-0.0683 -0.03619,-0.0361 -0.01746,-0.0399 0.20157,-0.0398 z m 0.333355,1.6581 c 0.01322,0.31967 -0.04704,0.34177 0.1102,0.30618 0.08353,-0.0188 0.287035,-0.0941 0.413822,-0.15457 l 0.162272,-0.0775 v -0.67622 -0.67622 l -0.146704,-0.065 c -0.08069,-0.0357 -0.227074,-0.0815 -0.325302,-0.10166 -0.05187,-0.0126 6.62e-4,-6.6e-4 -0.15855,-0.036 -0.101835,-0.0219 -0.08745,-0.0593 -0.07685,0.18887 l 0.01546,0.36209 c 0,0 0.02853,0.55328 0.0056,0.92997 z m 1.047214,-0.16315 c 0.27027,-0.20587 0.347239,-0.26597 0.423696,-0.31719 l 0.159528,-0.12471 -0.299854,-0.23492 c -0.164922,-0.12921 -0.337171,-0.25821 -0.382776,-0.28668 l -0.08293,-0.0517 -0.0017,0.3278 c -8.79e-4,0.18029 -0.0096,0.29648 -0.01308,0.53193 -0.01378,0.37583 -0.03321,0.3371 0.197097,0.15554 z m 1.501591,-0.027 0.242382,0.16675 0.0067,-0.21149 c 0.0038,-0.11627 -0.002,-0.31119 -0.01279,-0.43304 l -0.01957,-0.22157 -0.343798,0.16678 -0.343797,0.16678 0.114179,0.0995 c 0.06279,0.0547 0.223244,0.17456 0.356554,0.26626 z m 0.452872,0.26334 c 0.164034,0.0825 0.58802,0.23311 0.656312,0.23311 0.04119,0 0.04367,-0.0489 0.03525,-0.69953 -0.0051,-0.38473 -0.0176,-0.70805 -0.02805,-0.71848 -0.0372,-0.0373 -0.445745,0.0572 -0.778316,0.17998 -0.0239,0.008 -0.0319,0.12696 -0.0319,0.47143 v 0.45969 z m 0.823709,-0.38476 0.002,0.64337 0.336592,-3.3e-4 c 0.185125,-1.7e-4 0.352276,-0.01 0.371447,-0.0225 0.02849,-0.018 0.03307,-0.15064 0.0251,-0.72506 -0.0053,-0.38663 -0.0157,-0.70891 -0.02295,-0.71615 -0.02888,-0.0288 -0.361834,-0.0467 -0.547462,-0.0293 l -0.196905,0.0184 0.01504,0.0941 c 0.0083,0.0517 0.01597,0.38361 0.0171,0.73747 z m 0.879344,-0.0838 c 0,0.21049 -0.0034,0.34385 -0.01413,0.49191 -0.0104,0.22182 -0.02075,0.21067 0.171009,0.13863 0.126889,-0.0589 0.08231,-0.0315 0.237734,-0.0966 l 0.282607,-0.11852 -0.0069,-0.47432 -0.0069,-0.47433 -0.25514,-0.082 c -0.140331,-0.0451 -0.297875,-0.0898 -0.350109,-0.0995 l -0.08186,-0.0157 0.0053,0.17306 c 0.003,0.0967 0.01843,0.34715 0.01843,0.55764 z m 0.899366,0.27952 c 0.06666,-0.0384 0.234409,-0.14567 0.372787,-0.23842 l 0.251595,-0.16866 -0.328137,-0.15809 -0.363728,-0.17493 -0.0031,0.27699 c -0.0015,0.14341 -0.0032,0.2925 -0.0041,0.35699 -0.0024,0.15681 0.008,0.14449 0.0746,0.10615 z m 1.536937,-0.35776 c 0.112112,0.0647 0.232662,0.12851 0.267896,0.14192 l 0.06406,0.0243 v -0.30555 c 0,-0.16804 -0.0065,-0.30553 -0.01444,-0.30553 -0.03255,0 -0.521358,0.29922 -0.521358,0.31916 0,0.004 0.09173,0.061 0.203835,0.12569 z m 0.644501,0.29218 c 0.194415,0.0641 0.490216,0.12949 0.589866,0.13033 0.02605,1.7e-4 0.01012,-1.13686 -0.01628,-1.16328 -0.02801,-0.028 -0.455959,0.0915 -0.695964,0.19445 l -0.113631,0.0488 v 0.35599 0.35599 z m 0.733524,-0.34696 v 0.48494 l 0.184978,-0.0156 c 0.101736,-0.008 0.268216,-0.0344 0.369951,-0.0575 l 0.184976,-0.0419 -1.34e-4,-0.38631 c -8.8e-5,-0.21248 -0.0075,-0.46382 -0.01645,-0.55855 l -0.01627,-0.17222 h -0.286531 c -0.157592,0 -0.323736,0.007 -0.369211,0.0166 -0.08162,0.0163 -0.08247,0.018 -0.06697,0.13118 0.0086,0.063 0.0157,0.33282 0.0157,0.59955 z m 0.878983,-0.11571 c 6.62e-4,0.24207 0.0083,0.44013 0.01684,0.44013 0.0086,0 0.154963,-0.0704 0.325301,-0.15649 l 0.309705,-0.15648 v -0.32384 -0.32384 l -0.24876,-0.0425 c -0.136815,-0.0233 -0.16189,-0.0347 -0.296044,-0.0454 -0.139276,-0.0155 -0.149073,-0.0446 -0.137729,0.0696 0.01139,0.1976 0.02996,0.28432 0.03068,0.53886 z m 0.900613,-0.0337 c 0.03859,-0.0253 0.136422,-0.0855 0.217404,-0.13385 0.08098,-0.0482 0.152869,-0.0969 0.159751,-0.10798 0.01,-0.0162 -0.402368,-0.19317 -0.449536,-0.19317 -0.0069,0 -0.0032,0.10489 -0.008,0.21364 -0.0048,0.10868 3.63e-4,0.24337 -0.0025,0.26252 -0.0038,0.026 0.0305,-0.007 0.08283,-0.0412 z"
         style="fill:#ffffff;fill-opacity:1;stroke-width:0.16825016" />
      <path
         id="path973-2-5-7-0"
         d="m 34.008175,210.2023 c 0.02937,-0.14032 0.14273,-0.47851 0.187522,-0.55938 l 0.03334,-0.0602 0.08891,0.11121 c 0.183667,0.22975 0.327162,0.56048 0.327415,0.75465 2.2e-4,0.16555 -0.07796,0.33925 -0.188929,0.41975 -0.05472,0.0396 -0.123937,0.0721 -0.153785,0.0721 -0.06535,0 -0.197586,-0.18524 -0.234125,-0.239 -0.07547,-0.11108 -0.09968,-0.3113 -0.06034,-0.49924 z m 0.738093,0.50861 c 0.01181,-0.0211 0.05271,-0.11599 0.09087,-0.21095 0.03816,-0.0949 0.09286,-0.20253 0.121561,-0.23903 0.08347,-0.10615 0.304726,-0.2333 0.546657,-0.31422 0.248879,-0.0832 0.790071,-0.19655 0.815833,-0.17077 0.0472,0.0472 -0.341346,0.775 -0.479915,0.89895 -0.02999,0.0268 -0.0825,0.0928 -0.11671,0.14664 -0.133048,0.20942 -0.476693,0.28469 -0.77932,0.17069 -0.192348,-0.0724 -0.261415,-0.17011 -0.19898,-0.28131 z m 1.298335,2.01963 c 0.110482,-0.23765 0.556274,-0.22394 0.654497,-0.20796 0.09822,0.0159 0.218777,0.0529 0.267896,0.0821 0.227655,0.1354 0.445222,0.40601 0.672167,0.83618 0.120029,0.2275 0.322883,0.66974 0.322883,0.70389 0,0.0519 -0.71421,-0.079 -0.982903,-0.18016 -0.28199,-0.10615 -0.580357,-0.27431 -0.701828,-0.39556 -0.209347,-0.20896 -0.274073,-0.44219 -0.232712,-0.83853 z m 3.420122,0.0468 c 0.07064,-0.2212 0.207247,-0.33721 0.330798,-0.28093 0.05192,0.0238 0.06825,0.0232 0.07678,-0.001 0.0059,-0.0179 0.03731,-0.0591 0.06968,-0.0914 0.05019,-0.0502 0.08501,-0.0589 0.236414,-0.0589 0.374752,0 0.62977,0.22217 0.977804,0.85187 0.05343,0.0967 0.09714,0.18161 0.09714,0.18876 0,0.0253 -0.435376,-0.0181 -0.605671,-0.0603 -0.194378,-0.0482 -0.477482,-0.16888 -0.549973,-0.23448 -0.04548,-0.0412 -0.05009,-0.0408 -0.08408,0.006 -0.08816,0.11234 -0.168213,0.54971 -0.191101,0.54971 -0.03175,0 -0.223031,-0.28981 -0.291878,-0.44219 -0.06782,-0.15014 -0.09592,-0.33147 -0.06591,-0.42545 z"
         style="fill:#00ab4e;fill-opacity:1;stroke-width:0.16825016" />
    </g>
    <flowRoot
       transform="matrix(0.20078621,0,0,0.20078621,-134.60288,39.976023)"
       style="font-style:normal;font-variant:normal;font-weight:normal;font-stretch:normal;font-size:13.33333302px;line-height:125%;font-family:Helvetica;-inkscape-font-specification:'Helvetica, Normal';font-variant-ligatures:normal;font-variant-caps:normal;font-variant-numeric:normal;font-feature-settings:normal;text-align:start;letter-spacing:0px;word-spacing:0px;writing-mode:lr-tb;text-anchor:start;fill:#ffffff;fill-opacity:1;stroke:none;stroke-width:0.53993624px;stroke-linecap:butt;stroke-linejoin:miter;stroke-opacity:1;"
       id="flowRoot969-6-7"
       xml:space="preserve"><flowRegion
         style="fill:#ffffff;fill-opacity:1;stroke-width:0.53993624px;"
         id="flowRegion965-2-5"><rect
           style="fill:#ffffff;fill-opacity:1;stroke-width:0.53993624px;"
           y="285.3707"
           x="909.1955"
           height="115.11777"
           width="270.17438"
           id="rect963-6-5" /></flowRegion><flowPara
         style="font-size:74.66666412px;line-height:125%;fill:#ffffff;fill-opacity:1;stroke-width:0.53993624px;"
         id="flowPara967-2-7">Kipoi</flowPara></flowRoot>  </g>
</svg>
