<?xml version="1.0" encoding="UTF-8" standalone="no"?>
<!-- Created with Inkscape (http://www.inkscape.org/) -->

<svg
   xmlns:dc="http://purl.org/dc/elements/1.1/"
   xmlns:cc="http://creativecommons.org/ns#"
   xmlns:rdf="http://www.w3.org/1999/02/22-rdf-syntax-ns#"
   xmlns:svg="http://www.w3.org/2000/svg"
   xmlns="http://www.w3.org/2000/svg"
   xmlns:sodipodi="http://sodipodi.sourceforge.net/DTD/sodipodi-0.dtd"
   xmlns:inkscape="http://www.inkscape.org/namespaces/inkscape"
   width="98.256561mm"
   height="35.573181mm"
   viewBox="0 0 98.256561 35.573181"
   version="1.1"
   id="svg7679"
   inkscape:version="0.92.2 (unknown)"
   sodipodi:docname="logo-white-kipoi.svg">
  <defs
     id="defs7673" />
  <sodipodi:namedview
     id="base"
     pagecolor="#ffffff"
     bordercolor="#666666"
     borderopacity="1.0"
     inkscape:pageopacity="0.0"
     inkscape:pageshadow="2"
     inkscape:zoom="1.8445543"
     inkscape:cx="290.65761"
     inkscape:cy="35.186563"
     inkscape:document-units="mm"
     inkscape:current-layer="layer1"
     showgrid="false"
     inkscape:window-width="1871"
     inkscape:window-height="1056"
     inkscape:window-x="49"
     inkscape:window-y="24"
     inkscape:window-maximized="1" />
  <metadata
     id="metadata7676">
    <rdf:RDF>
      <cc:Work
         rdf:about="">
        <dc:format>image/svg+xml</dc:format>
        <dc:type
           rdf:resource="http://purl.org/dc/dcmitype/StillImage" />
        <dc:title></dc:title>
      </cc:Work>
    </rdf:RDF>
  </metadata>
  <g
     inkscape:label="Layer 1"
     inkscape:groupmode="layer"
     id="layer1"
     transform="translate(-14.749887,-134.58165)">
    <g
       id="g8333"
       transform="matrix(0.84268944,0,0,0.84268944,6.0696094,23.79523)">
      <g
         clip-path="none"
         id="g7311-9-8-6-2"
         transform="matrix(-1,0,0,-1.289502,99.407311,192.71035)">
        <path
           sodipodi:nodetypes="scssccsccccccscssccsccsscsscssscccccccccccccccccscccccccccccccccccscccccc"
           inkscape:connector-curvature="0"
           id="path971-8-0-1-6"
           d="m 50.257389,28.419372 c 0.09274,0 0.528191,-0.228592 0.967682,-0.507975 1.337377,-0.850186 4.07317,-2.177586 5.196708,-2.52143 3.27737,-1.002998 7.448573,-1.340193 10.546066,-0.852532 2.130822,0.33547 4.591526,1.03914 6.467321,1.849409 0.850207,0.367258 1.634956,0.66663 1.743889,0.665263 0.108938,-0.0013 0.871485,-0.487033 1.69456,-1.079267 1.604715,-1.154655 1.65117,-1.158537 1.839665,-0.153767 0.07261,0.387022 0.03894,0.561689 -0.126046,0.654021 -0.123811,0.06929 -0.581317,0.407544 -1.016681,0.751681 l -0.791575,0.625703 1.118784,0.595613 c 1.889287,1.005806 3.239757,1.60987 4.859673,2.173726 0.853955,0.297244 1.574454,0.562248 1.601105,0.588899 0.02665,0.02665 0.0074,0.155336 -0.04269,0.285964 -0.08226,0.214373 -0.167535,0.215108 -0.875516,0.0075 -1.849298,-0.542226 -2.736335,-0.894207 -4.987112,-1.978912 l -2.383021,-1.148439 -0.817018,0.616857 c -1.575293,1.189357 -3.679498,2.571718 -5.015783,3.295131 l -1.348648,0.730106 c 0,0 -1.039562,0.464886 -2.985181,1.281363 0,0 -2.542592,0.578909 -4.38196,0.613491 -2.067853,0.03886 -3.232253,-0.09199 -5.315787,-0.755777 -1.983743,-0.631992 -2.845148,-1.008552 -4.769012,-2.08475 -0.906849,-0.507283 -1.179745,-0.892209 -1.179745,-0.892209 -0.0554,0 -0.09241,-2.759669 3.22e-4,-2.759669 z m 3.054285,1.885393 c 0.666328,0.384336 1.382838,0.763935 1.59225,0.843552 l 0.380742,0.144758 v -1.815959 c 0,-0.998777 -0.0386,-1.815958 -0.08579,-1.815958 -0.193425,0 -3.098705,1.778458 -3.098705,1.896865 0,0.02635 0.545178,0.362405 1.211503,0.746742 z m 3.830617,1.736573 c 1.155506,0.380975 2.913611,0.769382 3.505884,0.774527 0.154872,0.0013 0.06034,-6.756973 -0.09671,-6.914024 -0.1664,-0.166405 -2.710006,0.544293 -4.136479,1.155747 l -0.675385,0.289506 v 2.115884 2.115881 z m 4.359728,-2.062123 v 2.882296 l 1.09941,-0.09331 c 0.604675,-0.05132 1.594146,-0.205216 2.19882,-0.341991 l 1.099411,-0.248674 -8.6e-4,-2.296097 c -4.3e-4,-1.262857 -0.04458,-2.756714 -0.09775,-3.319689 l -0.09667,-1.023588 h -1.703006 c -0.936655,0 -1.924144,0.04423 -2.194423,0.09828 -0.48512,0.09703 -0.490222,0.107016 -0.398066,0.77938 0.05133,0.374604 0.09334,1.978129 0.09334,3.563394 z m 5.224257,-0.687929 c 0.0039,1.438694 0.04913,2.615822 0.100122,2.615839 0.05098,1.7e-5 0.921034,-0.418506 1.933442,-0.930048 l 1.840743,-0.930078 v -1.924733 -1.924738 l -1.478515,-0.252379 c -0.813183,-0.138804 -0.962201,-0.206515 -1.759549,-0.269983 -0.827828,-0.09184 -0.886018,-0.265357 -0.818604,0.41342 0.06778,1.174416 0.178071,1.689853 0.182361,3.2027 z m 5.352823,-0.200788 c 0.229361,-0.150484 0.810819,-0.508358 1.292135,-0.795268 0.481315,-0.28691 0.908589,-0.57581 0.949494,-0.641999 0.05944,-0.09617 -2.391489,-1.148039 -2.671827,-1.148039 -0.04088,0 -0.01887,0.623321 -0.04729,1.269696 -0.02841,0.646379 0.0021,1.446513 -0.01479,1.560359 -0.02274,0.154382 0.181243,-0.04071 0.492264,-0.244749 z"
           style="fill:#f9f9f9;fill-opacity:1;stroke-width:1.00000012" />
        <path
           inkscape:connector-curvature="0"
           id="path973-6-3-8-3"
           d="m 62.746891,35.644141 c 0.419812,-1.314711 1.231784,-2.00426 1.966115,-1.669679 0.308596,0.140605 0.405631,0.137514 0.456311,-0.01453 0.03542,-0.106213 0.221787,-0.350529 0.414181,-0.542922 0.298301,-0.298306 0.50522,-0.349819 1.405131,-0.349819 2.227354,0 3.743064,1.320496 5.811617,5.063122 0.317542,0.574525 0.577345,1.079392 0.577345,1.121935 0,0.150057 -2.587674,-0.107597 -3.599829,-0.358438 -1.155291,-0.286312 -2.837922,-1.003677 -3.268777,-1.393597 -0.270347,-0.244664 -0.297686,-0.242829 -0.49976,0.03353 -0.523936,0.667348 -0.99977,3.267234 -1.13581,3.267234 -0.188659,0 -1.325591,-1.722457 -1.73479,-2.628218 -0.403125,-0.892311 -0.570089,-1.970065 -0.391734,-2.528617 z"
           style="fill:#00ab4e;fill-opacity:1;stroke-width:1.00000012"
           sodipodi:nodetypes="ccccscscccsccc" />
      </g>
      <g
         id="flowRoot969-5-7-5-0"
         style="font-style:normal;font-variant:normal;font-weight:normal;font-stretch:normal;font-size:13.33333302px;line-height:125%;font-family:Helvetica;-inkscape-font-specification:'Helvetica, Normal';font-variant-ligatures:normal;font-variant-caps:normal;font-variant-numeric:normal;font-feature-settings:normal;text-align:start;letter-spacing:0px;word-spacing:0px;writing-mode:lr-tb;text-anchor:start;fill:#f9f9f9;fill-opacity:1;stroke:none;stroke-width:0.53993624px;stroke-linecap:butt;stroke-linejoin:miter;stroke-opacity:1"
         transform="matrix(0.49002701,0,0,0.49002701,-401.47177,-9.6292071)"
         aria-label="Kipoi">
        <path
           id="path8246"
           style="font-size:74.66666412px;line-height:125%;fill:#f9f9f9;fill-opacity:1;stroke-width:0.53993624px"
           d="m 958.32598,353.24309 -22.4,-32.256 22.176,-22.176 h -8.96 l -27.104,27.552 v -27.552 h -6.944 v 54.432 h 6.944 v -19.04 l 8.88533,-8.88533 19.18933,27.92533 z"
           inkscape:connector-curvature="0" />
        <path
           id="path8248"
           style="font-size:74.66666412px;line-height:125%;fill:#f9f9f9;fill-opacity:1;stroke-width:0.53993624px"
           d="m 970.49431,353.24309 v -39.12533 h -6.19733 v 39.12533 z m 0.82134,-45.024 v -7.76533 h -7.76534 v 7.76533 z"
           inkscape:connector-curvature="0" />
        <path
           id="path8250"
           style="font-size:74.66666412px;line-height:125%;fill:#f9f9f9;fill-opacity:1;stroke-width:0.53993624px"
           d="m 1014.746,334.05376 c 0,-13.14133 -6.4214,-21.056 -16.80002,-21.056 -5.30133,0 -9.55733,2.38933 -12.46933,7.01867 v -5.89867 h -5.67467 v 55.40266 h 6.19733 v -20.98133 c 3.28534,4.032 6.944,5.824 12.02134,5.824 10.07995,0 16.72535,-7.84 16.72535,-20.30933 z m -6.496,-0.14933 c 0,8.88533 -4.5547,14.63466 -11.34935,14.63466 -6.57067,0 -10.90134,-5.376 -10.90134,-14.56 0,-9.184 4.33067,-15.15733 10.90134,-15.15733 6.86935,0 11.34935,5.74933 11.34935,15.08267 z"
           inkscape:connector-curvature="0" />
        <path
           id="path8252"
           style="font-size:74.66666412px;line-height:125%;fill:#f9f9f9;fill-opacity:1;stroke-width:0.53993624px"
           d="m 1055.3378,333.97909 c 0,-13.51466 -6.496,-20.98133 -17.7707,-20.98133 -10.976,0 -17.6213,7.54133 -17.6213,20.68267 0,13.14133 6.5707,20.68266 17.696,20.68266 10.976,0 17.696,-7.54133 17.696,-20.384 z m -6.496,-0.0747 c 0,9.184 -4.3307,14.70933 -11.2,14.70933 -6.944,0 -11.2,-5.45067 -11.2,-14.93333 0,-9.408 4.256,-14.93334 11.2,-14.93334 7.0187,0 11.2,5.45067 11.2,15.15734 z"
           inkscape:connector-curvature="0" />
        <path
           id="path8254"
           style="font-size:74.66666412px;line-height:125%;fill:#f9f9f9;fill-opacity:1;stroke-width:0.53993624px"
           d="m 1070.2443,353.24309 v -39.12533 h -6.1973 v 39.12533 z m 0.8213,-45.024 v -7.76533 h -7.7653 v 7.76533 z"
           inkscape:connector-curvature="0" />
      </g>
    </g>
    <text
       xml:space="preserve"
       style="font-style:normal;font-variant:normal;font-weight:normal;font-stretch:normal;font-size:3.52777767px;line-height:125%;font-family:'Droid Sans';-inkscape-font-specification:'Droid Sans';font-variant-ligatures:normal;font-variant-caps:normal;font-variant-numeric:normal;font-feature-settings:normal;text-align:start;letter-spacing:0px;word-spacing:0px;writing-mode:lr-tb;text-anchor:start;fill:#000000;fill-opacity:1;stroke:none;stroke-width:0.26458332px;stroke-linecap:butt;stroke-linejoin:miter;stroke-opacity:1"
       x="68.564445"
       y="185.69035"
       id="text8244"><tspan
         sodipodi:role="line"
         id="tspan8242"
         x="68.564445"
         y="188.81613"
         style="stroke-width:0.26458332px"></tspan></text>
    <rect
       style="opacity:1;vector-effect:none;fill:none;fill-opacity:1;stroke:none;stroke-width:1.40722847;stroke-linecap:butt;stroke-linejoin:miter;stroke-miterlimit:2;stroke-dasharray:none;stroke-dashoffset:0;stroke-opacity:1;paint-order:stroke fill markers"
       id="rect8335"
       width="98.256561"
       height="35.573181"
       x="14.749887"
       y="134.58165" />
  </g>
</svg>
