<?xml version="1.0" encoding="UTF-8" standalone="no"?>
<!-- Created with Inkscape (http://www.inkscape.org/) -->

<svg
   xmlns:dc="http://purl.org/dc/elements/1.1/"
   xmlns:cc="http://creativecommons.org/ns#"
   xmlns:rdf="http://www.w3.org/1999/02/22-rdf-syntax-ns#"
   xmlns:svg="http://www.w3.org/2000/svg"
   xmlns="http://www.w3.org/2000/svg"
   xmlns:sodipodi="http://sodipodi.sourceforge.net/DTD/sodipodi-0.dtd"
   xmlns:inkscape="http://www.inkscape.org/namespaces/inkscape"
   width="210mm"
   height="297mm"
   viewBox="0 0 210 297"
   version="1.1"
   id="svg1398"
   inkscape:version="0.92.2 (unknown)"
   sodipodi:docname="logo1.svg">
  <defs
     id="defs1392" />
  <sodipodi:namedview
     id="base"
     pagecolor="#ffffff"
     bordercolor="#666666"
     borderopacity="1.0"
     inkscape:pageopacity="0.0"
     inkscape:pageshadow="2"
     inkscape:zoom="0.45147111"
     inkscape:cx="381.87308"
     inkscape:cy="157.96018"
     inkscape:document-units="mm"
     inkscape:current-layer="layer1"
     showgrid="false"
     inkscape:window-width="1871"
     inkscape:window-height="1056"
     inkscape:window-x="49"
     inkscape:window-y="24"
     inkscape:window-maximized="1" />
  <metadata
     id="metadata1395">
    <rdf:RDF>
      <cc:Work
         rdf:about="">
        <dc:format>image/svg+xml</dc:format>
        <dc:type
           rdf:resource="http://purl.org/dc/dcmitype/StillImage" />
        <dc:title></dc:title>
      </cc:Work>
    </rdf:RDF>
  </metadata>
  <g
     inkscape:label="Layer 1"
     inkscape:groupmode="layer"
     id="layer1">
    <g
       id="g987"
       transform="translate(-75.265932,-42.911432)">
      <flowRoot
         transform="matrix(0.49002701,0,0,0.49002701,-325.24963,-3.8050364)"
         style="font-style:normal;font-variant:normal;font-weight:normal;font-stretch:normal;font-size:13.33333302px;line-height:125%;font-family:Helvetica;-inkscape-font-specification:'Helvetica, Normal';font-variant-ligatures:normal;font-variant-caps:normal;font-variant-numeric:normal;font-feature-settings:normal;text-align:start;letter-spacing:0px;word-spacing:0px;writing-mode:lr-tb;text-anchor:start;fill:#58595b;fill-opacity:1;stroke:none;stroke-width:0.53993624px;stroke-linecap:butt;stroke-linejoin:miter;stroke-opacity:1"
         id="flowRoot969"
         xml:space="preserve"><flowRegion
           style="fill:#58595b;fill-opacity:1;stroke-width:0.53993624px"
           id="flowRegion965"><rect
             style="fill:#58595b;fill-opacity:1;stroke-width:0.53993624px"
             y="285.3707"
             x="909.1955"
             height="115.11777"
             width="270.17438"
             id="rect963" /></flowRegion><flowPara
           style="font-size:74.66666412px;line-height:125%;fill:#58595b;fill-opacity:1;stroke-width:0.53993624px"
           id="flowPara967">Kipoi</flowPara></flowRoot>      <g
         inkscape:transform-center-y="-198.67511"
         inkscape:transform-center-x="-3.9867911"
         id="g977"
         transform="matrix(0,0.42985339,-0.42985339,0,229.14453,95.319593)"
         style="stroke-width:2.32637477">
        <g
           transform="translate(-198.00998,-85.679937)"
           id="g975"
           style="stroke-width:2.32637477">
          <path
             style="fill:#58595b;fill-opacity:1;stroke-width:2.32637477"
             d="m 260.34047,330.80621 c 0.002,-6.92494 1.10117,-12.05706 3.71476,-17.34544 1.28448,-2.59904 5.41092,-8.61965 7.46949,-10.89826 0.63909,-0.70739 1.16198,-1.37985 1.16198,-1.49436 0,-0.11451 -0.87933,-1.49957 -1.95406,-3.0779 -3.55164,-5.21593 -4.74568,-8.31842 -7.68294,-17.62916 -1.06273,-3.3687 -1.36139,-4.55629 -1.85084,-7.77707 0.0252,-1.0365 -0.75392,-3.74831 0.3134,-10.19201 0.43207,-3.86491 0.1892,-1.86896 1.29666,-7.44796 1.17931,-5.94094 4.90072,-11.8932 7.78801,-16.94717 0.95534,-1.67227 1.73699,-3.217 1.73699,-3.43274 0,-0.21574 -0.53179,-1.22877 -1.18174,-2.25119 -1.97785,-3.11124 -5.06588,-9.47572 -5.86579,-12.08949 -2.33335,-7.62439 -3.11779,-17.32817 -1.98331,-24.5341 0.78043,-4.95709 2.41743,-10.68161 4.30242,-15.04541 0.85438,-1.9779 1.55083,-3.80352 1.54765,-4.05694 -0.003,-0.25343 -1.13302,-2.0274 -2.51078,-3.94218 -2.68616,-3.73317 -2.69519,-3.84124 -0.35772,-4.27975 0.90036,-0.16891 1.3067,-0.0906 1.5215,0.29323 0.1612,0.28803 0.9481,1.35236 1.74869,2.36518 l 1.45562,1.8415 1.38562,-2.60271 c 2.33988,-4.39519 3.74516,-7.53689 5.0569,-11.30542 0.6915,-1.98662 1.308,-3.66277 1.37,-3.72477 0.062,-0.062 0.36137,-0.0173 0.66526,0.0993 0.49871,0.19137 0.50042,0.38975 0.0175,2.03678 -1.26142,4.30216 -2.08026,6.36574 -4.60369,11.60189 l -2.6717,5.5438 1.43504,1.90069 c 2.76689,3.66472 5.98278,8.55989 7.66571,11.66859 l 1.6985,3.13746 c 0,0 1.0815,2.41841 2.98093,6.94465 0,0 1.34676,5.91502 1.42721,10.19408 0.0904,4.8106 -0.21401,7.51943 -1.75822,12.36651 -1.47025,4.61493 -2.34627,6.61888 -4.84991,11.09451 -1.18013,2.10967 -2.1457,3.94121 -2.1457,4.07009 0,0.12889 1.33706,2.33697 2.97123,4.90685 2.08361,3.27665 1.3652,2.1019 2.8848,4.30279 1.54529,3.12479 3.77108,6.87339 3.77108,6.87339 l 1.13482,2.65117 c 3.39558,7.93274 3.81135,17.06328 1.15636,25.39467 -1.95898,6.14727 -6.10325,13.28126 -10.50285,18.07968 l -2.18318,2.38108 1.69351,2.37323 c 8.23813,11.54471 11.4352,18.25829 11.41371,23.96784 -0.0105,2.78739 -1.02829,5.0565 -2.26806,5.0565 -0.85474,0 -0.89919,-0.0959 -0.89919,-1.94028 v -1.94027 l -8.90764,0.002 c -4.8992,10e-4 -10.66521,0.10289 -12.81335,0.22668 l -3.90571,0.22508 -0.39325,2.29579 c -0.21629,1.26269 -0.64153,2.54407 -0.94499,2.84753 -0.50045,0.50045 -0.55163,0.24144 -0.55073,-2.78706 z m 22.92633,-4.60927 c 4.41998,-0.1819 4.72567,0.65047 4.23358,-1.52373 -0.26139,-1.15489 -1.30057,-3.96879 -2.13723,-5.72186 l -1.07083,-2.24373 h -9.35 -9.35001 l -0.89858,2.02847 c -0.49423,1.11566 -1.12675,3.13972 -1.40561,4.49792 -0.17813,0.7172 -0.009,-0.009 -0.49809,2.19225 -0.30226,1.40804 -0.82129,1.20927 2.61159,1.0627 l 5.00653,-0.21376 c 0,0 7.65027,-0.39451 12.85865,-0.0783 z m -2.25577,-14.4797 c -2.84653,-3.737 -3.67743,-4.80123 -4.38569,-5.85839 l -1.72493,-2.20579 -3.24836,4.14607 c -1.78661,2.28033 -3.57028,4.662 -3.96373,5.29259 l -0.71535,1.14653 4.53256,0.0229 c 2.4929,0.0126 4.09936,0.13135 7.35478,0.18133 5.19656,0.19118 4.66101,0.45913 2.15072,-2.72524 z m -0.37186,-20.76232 2.30547,-3.35139 -2.92411,-0.0943 c -1.60826,-0.0519 -4.30269,0.0275 -5.98763,0.17639 l -3.06351,0.27066 2.30602,4.75365 2.30603,4.75364 1.37613,-1.57864 c 0.75687,-0.86826 2.41359,-3.08678 3.6816,-4.93004 z m 3.64111,-6.26181 c 1.14093,-2.26808 3.22308,-8.13047 3.22308,-9.07474 0,-0.56968 -0.6767,-0.60378 -9.67208,-0.4873 -5.31964,0.0689 -9.79022,0.24342 -9.93462,0.38787 -0.5142,0.51437 0.79205,6.16324 2.48854,10.76167 0.12191,0.33044 1.75584,0.44098 6.51868,0.44098 h 6.35599 z m -5.31999,-11.38932 8.89585,-0.0283 -0.005,-4.65402 c -0.003,-2.5597 -0.1428,-4.87089 -0.31073,-5.13596 -0.24949,-0.39382 -2.08266,-0.45725 -10.02526,-0.34688 -5.34596,0.0743 -9.80194,0.21707 -9.90217,0.3173 -0.39921,0.39921 -0.64555,5.00304 -0.40504,7.56971 l 0.25513,2.72257 1.30089,-0.20802 c 0.71549,-0.11441 5.30402,-0.22078 10.19674,-0.23636 z m -1.15832,-12.15859 c 2.91042,0 4.75438,0.0452 6.80172,0.19534 3.06707,0.14337 2.9129,0.28702 1.91658,-2.36454 -0.81451,-1.75452 -0.43474,-1.13795 -1.33634,-3.28712 l -1.63926,-3.90758 -6.55842,0.0958 -6.55842,0.0958 -1.13344,3.52778 c -0.62339,1.94028 -1.24324,4.11869 -1.37744,4.84092 l -0.21809,1.13183 2.39277,-0.0735 c 1.337,-0.0411 4.79993,-0.2548 7.71034,-0.2548 z m 3.86488,-12.43542 c -0.53056,-0.92163 -2.01408,-3.24115 -3.29671,-5.15448 l -2.33205,-3.47879 -2.18569,4.53712 -2.41879,5.02922 3.8299,0.0414 c 1.98285,0.0214 4.04433,0.0434 4.93603,0.057 2.16811,0.0332 1.99784,-0.1099 1.46731,-1.03152 z m -4.9468,-21.25105 c 0.89411,-1.55013 1.7772,-3.217 1.96242,-3.70417 l 0.33676,-0.88575 h -4.2246 c -2.32353,0 -4.2246,0.0898 -4.2246,0.19958 0,0.44998 4.13736,7.20875 4.41282,7.20875 0.0613,0 0.84309,-1.26829 1.7372,-2.81841 z m 4.03992,-8.91145 c 0.88629,-2.68814 1.78987,-6.77815 1.80184,-8.156 0.003,-0.36029 -15.71925,-0.14037 -16.08461,0.22499 -0.38712,0.38711 1.26623,6.30449 2.6887,9.623 l 0.6735,1.5712 h 4.92234 4.92233 z m -4.79727,-10.14236 h 6.7053 l -0.21708,-2.55764 c -0.1194,-1.4067 -0.47741,-3.70858 -0.7956,-5.11528 l -0.57851,-2.55764 -5.34158,0.002 c -2.93788,0.001 -6.41315,0.10371 -7.72284,0.2274 l -2.38125,0.2249 v 3.96183 c 0,2.17901 0.10289,4.47628 0.22864,5.10505 0.22572,1.12857 0.24896,1.14044 1.81313,0.92605 0.87147,-0.11941 4.60187,-0.21714 8.28979,-0.21714 z m -1.60038,-12.15358 c 3.34694,-0.009 6.08538,-0.1143 6.08542,-0.23292 4e-5,-0.11861 -0.9736,-2.14267 -2.16364,-4.49791 l -2.16371,-4.28226 h -4.47765 -4.47766 l -0.58713,3.43958 c -0.32291,1.89177 -0.48043,2.23844 -0.62808,4.09337 -0.21365,1.92584 -0.61732,2.06121 0.96177,1.90438 2.73213,-0.15768 3.93123,-0.41426 7.45068,-0.42424 z m -0.46711,-12.45267 c -0.35008,-0.53358 -1.18263,-1.88627 -1.85009,-3.00599 -0.66746,-1.11972 -1.33955,-2.11372 -1.49353,-2.20888 -0.22373,-0.13828 -2.67077,5.5635 -2.67077,6.21567 0,0.0951 1.45008,0.0439 2.95379,0.11002 1.50372,0.0661 3.36513,-0.005 3.62998,0.0344 0.35915,0.0529 -0.0947,-0.42164 -0.56938,-1.14519 z"
             id="path971"
             inkscape:connector-curvature="0"
             sodipodi:nodetypes="cscscsccscscssccsccccccscssccsccsscscccccscccsscccccscccssccccccscccccccccccccccccccccccscccscccccccscccccccccccccccscccccccscscccssscccccccccccccccccsccccccsccccccccccscccc" />
          <path
             sodipodi:nodetypes="ccccccscccccscscccccssssscccccscscccscc"
             style="fill:#00ab4e;fill-opacity:1;stroke-width:2.32637477"
             d="m 253.53621,280.95595 c -1.94094,-0.40619 -6.61627,-1.97352 -7.73447,-2.59286 l -0.83226,-0.46097 1.53782,-1.22938 c 3.17664,-2.53954 7.74966,-4.52364 10.43432,-4.52715 2.28915,-0.003 4.69074,1.07795 5.80392,2.61231 0.549,0.75672 0.99818,1.71358 0.99818,2.12637 0,0.90366 -2.5612,2.73199 -3.30471,3.23721 -1.53581,1.04361 -4.30424,1.37828 -6.9028,0.83447 z m 7.03251,-10.20554 c -0.29104,-0.16341 -1.60355,-0.72876 -2.9167,-1.25634 -1.31314,-0.52758 -2.80038,-1.28399 -3.30498,-1.68091 -1.46734,-1.1542 -3.22581,-4.21341 -4.34478,-7.55857 -1.1511,-3.44121 -2.71751,-10.92421 -2.36132,-11.28041 0.65261,-0.6526 10.71587,4.71975 12.42975,6.63573 0.37093,0.41467 1.28337,1.14082 2.02764,1.61368 2.89565,1.8397 3.93628,6.59117 2.35998,10.77556 -1.00189,2.65956 -2.352,3.61455 -3.88959,2.75126 z m 27.9252,-17.95191 c -3.28599,-1.52754 -3.09628,-7.69153 -2.87543,-9.04966 0.22086,-1.35813 0.73194,-3.02501 1.13574,-3.70417 1.87153,-3.14776 5.61382,-6.15603 11.56172,-9.29397 3.1457,-1.65958 9.26043,-4.46448 9.73264,-4.46448 0.7174,0 -1.09275,9.87532 -2.49114,13.5905 -1.4676,3.89905 -3.79272,8.02452 -5.46925,9.7041 -2.88936,2.89462 -6.11415,3.78957 -11.59428,3.21768 z m 0.64752,-47.28962 c -3.05851,-0.97664 -4.66266,-2.86559 -3.8843,-4.57392 0.3271,-0.71791 0.31991,-0.94365 -0.0338,-1.06155 -0.24709,-0.0824 -0.81546,-0.51596 -1.26304,-0.96354 -0.69397,-0.69396 -0.81381,-1.17533 -0.81381,-3.26886 0,-5.18166 3.07197,-8.70777 11.77872,-13.52 1.33656,-0.73872 2.51107,-1.34312 2.61004,-1.34312 0.34909,0 -0.25031,6.0199 -0.83386,8.37455 -0.66607,2.68764 -2.33493,6.60207 -3.24203,7.6044 -0.56918,0.62893 -0.56491,0.69253 0.078,1.16263 1.5525,1.21887 7.60081,2.32584 7.60081,2.64232 0,0.43889 -4.00708,3.08382 -6.11422,4.03577 -2.07585,0.93782 -4.58311,1.32624 -5.88251,0.91132 z"
             id="path973"
             inkscape:connector-curvature="0" />
        </g>
      </g>
      <flowRoot
         xml:space="preserve"
         id="flowRoot1167"
         style="font-style:normal;font-variant:normal;font-weight:normal;font-stretch:normal;font-size:13.33333302px;line-height:125%;font-family:Helvetica;-inkscape-font-specification:'Helvetica, Normal';font-variant-ligatures:normal;font-variant-caps:normal;font-variant-numeric:normal;font-feature-settings:normal;text-align:start;letter-spacing:0px;word-spacing:0px;writing-mode:lr-tb;text-anchor:start;fill:#58595b;fill-opacity:1;stroke:none;stroke-width:0.53993624px;stroke-linecap:butt;stroke-linejoin:miter;stroke-opacity:1"
         transform="matrix(0.49002701,0,0,0.49002701,-325.24963,-3.8050364)"><flowRegion
           id="flowRegion1163"
           style="fill:#58595b;fill-opacity:1;stroke-width:0.53993624px"><rect
             id="rect1161"
             width="270.17438"
             height="115.11777"
             x="909.1955"
             y="285.3707"
             style="fill:#58595b;fill-opacity:1;stroke-width:0.53993624px" /></flowRegion><flowPara
           id="flowPara1165"
           style="font-size:74.66666412px;line-height:125%;fill:#58595b;fill-opacity:1;stroke-width:0.53993624px">Kipoi</flowPara></flowRoot>    </g>
  </g>
</svg>
