<?xml version="1.0" encoding="UTF-8" standalone="no"?>
<!-- Created with Inkscape (http://www.inkscape.org/) -->

<svg
   xmlns:dc="http://purl.org/dc/elements/1.1/"
   xmlns:cc="http://creativecommons.org/ns#"
   xmlns:rdf="http://www.w3.org/1999/02/22-rdf-syntax-ns#"
   xmlns:svg="http://www.w3.org/2000/svg"
   xmlns="http://www.w3.org/2000/svg"
   xmlns:sodipodi="http://sodipodi.sourceforge.net/DTD/sodipodi-0.dtd"
   xmlns:inkscape="http://www.inkscape.org/namespaces/inkscape"
   width="72.272156mm"
   height="45.173172mm"
   viewBox="0 0 72.272155 45.173172"
   version="1.1"
   id="svg949"
   inkscape:version="0.92.2 (unknown)"
   sodipodi:docname="logo-white3.svg">
  <defs
     id="defs943" />
  <sodipodi:namedview
     id="base"
     pagecolor="#ffffff"
     bordercolor="#666666"
     borderopacity="1.0"
     inkscape:pageopacity="0.0"
     inkscape:pageshadow="2"
     inkscape:zoom="2.5539062"
     inkscape:cx="148.83581"
     inkscape:cy="29.847909"
     inkscape:document-units="mm"
     inkscape:current-layer="layer1"
     showgrid="false"
     inkscape:window-width="1871"
     inkscape:window-height="1056"
     inkscape:window-x="49"
     inkscape:window-y="24"
     inkscape:window-maximized="1" />
  <metadata
     id="metadata946">
    <rdf:RDF>
      <cc:Work
         rdf:about="">
        <dc:format>image/svg+xml</dc:format>
        <dc:type
           rdf:resource="http://purl.org/dc/dcmitype/StillImage" />
        <dc:title></dc:title>
      </cc:Work>
    </rdf:RDF>
  </metadata>
  <g
     inkscape:label="Layer 1"
     inkscape:groupmode="layer"
     id="layer1"
     transform="translate(-21.631265,-103.65356)">
    <g
       aria-label="Kipoi"
       transform="matrix(0.46103293,0,0,0.46103293,-399.89309,-34.10819)"
       style="font-style:normal;font-variant:normal;font-weight:normal;font-stretch:normal;font-size:13.33333302px;line-height:125%;font-family:Helvetica;-inkscape-font-specification:'Helvetica, Normal';font-variant-ligatures:normal;font-variant-caps:normal;font-variant-numeric:normal;font-feature-settings:normal;text-align:start;letter-spacing:0px;word-spacing:0px;writing-mode:lr-tb;text-anchor:start;fill:#e6e6e6;fill-opacity:1;stroke:none;stroke-width:0.57389253px;stroke-linecap:butt;stroke-linejoin:miter;stroke-opacity:1"
       id="flowRoot969-5">
      <g
         style="fill:#e6e6e6;stroke-width:0.57389253px"
         id="g1722">
        <path
           sodipodi:nodetypes="cccccccccccccc"
           inkscape:connector-curvature="0"
           id="path1613"
           style="font-size:74.66666412px;line-height:125%;fill:#e6e6e6;fill-opacity:1;stroke-width:0.57389253px"
           d="m 958.32598,353.24309 -22.4,-32.256 22.176,-22.176 h -8.96 l -27.104,27.552 v -27.552 h -6.944 v 36.13708 18.29492 h 6.944 v -19.04 l 8.88533,-8.88533 19.18933,27.92533 z" />
        <path
           inkscape:connector-curvature="0"
           id="path1615"
           style="font-size:74.66666412px;line-height:125%;fill:#e6e6e6;fill-opacity:1;stroke-width:0.57389253px"
           d="m 970.49431,353.24309 v -39.12533 h -6.19733 v 39.12533 z m 0.82134,-45.024 v -7.76533 h -7.76534 v 7.76533 z" />
        <path
           inkscape:connector-curvature="0"
           id="path1617"
           style="font-size:74.66666412px;line-height:125%;fill:#e6e6e6;fill-opacity:1;stroke-width:0.57389253px"
           d="m 1014.746,334.05376 c 0,-13.14133 -6.4214,-21.056 -16.80002,-21.056 -5.30133,0 -9.55733,2.38933 -12.46933,7.01867 v -5.89867 h -5.67467 v 55.40266 h 6.19733 v -20.98133 c 3.28534,4.032 6.944,5.824 12.02134,5.824 10.07995,0 16.72535,-7.84 16.72535,-20.30933 z m -6.496,-0.14933 c 0,8.88533 -4.5547,14.63466 -11.34935,14.63466 -6.57067,0 -10.90134,-5.376 -10.90134,-14.56 0,-9.184 4.33067,-15.15733 10.90134,-15.15733 6.86935,0 11.34935,5.74933 11.34935,15.08267 z" />
        <path
           inkscape:connector-curvature="0"
           id="path1619"
           style="font-size:74.66666412px;line-height:125%;fill:#e6e6e6;fill-opacity:1;stroke-width:0.57389253px"
           d="m 1055.3378,333.97909 c 0,-13.51466 -6.496,-20.98133 -17.7707,-20.98133 -10.976,0 -17.6213,7.54133 -17.6213,20.68267 0,13.14133 6.5707,20.68266 17.696,20.68266 10.976,0 17.696,-7.54133 17.696,-20.384 z m -6.496,-0.0747 c 0,9.184 -4.3307,14.70933 -11.2,14.70933 -6.944,0 -11.2,-5.45067 -11.2,-14.93333 0,-9.408 4.256,-14.93334 11.2,-14.93334 7.0187,0 11.2,5.45067 11.2,15.15734 z" />
        <path
           inkscape:connector-curvature="0"
           id="path1621"
           style="font-size:74.66666412px;line-height:125%;fill:#e6e6e6;fill-opacity:1;stroke-width:0.57389253px"
           d="m 1070.2443,353.24309 v -39.12533 h -6.1973 v 39.12533 z m 0.8213,-45.024 v -7.76533 h -7.7653 v 7.76533 z" />
      </g>
    </g>
    <g
       id="g1735"
       transform="matrix(1,0,0,0.74886054,0,32.962482)"
       style="stroke-width:1.15557873">
      <path
         style="fill:#ececec;fill-opacity:1;stroke-width:1.15557885"
         d="m 92.648194,135.36097 c -2.800582,8.1e-4 -4.876113,0.44534 -7.014838,1.50232 -1.051103,0.51947 -3.485956,2.18828 -4.40747,3.02081 -0.286083,0.25846 -0.55804,0.46992 -0.604349,0.46992 -0.04631,0 -0.606456,-0.35561 -1.244764,-0.79025 -2.109424,-1.43636 -3.364133,-1.91925 -7.129579,-3.10713 -1.362368,-0.42979 -1.842654,-0.55058 -3.1452,-0.74852 -0.419181,0.0102 -1.515891,-0.3049 -4.12185,0.12674 -1.563046,0.17474 -0.755844,0.0765 -3.012101,0.5244 -2.402633,0.47694 -4.809844,1.98195 -6.853769,3.14962 -0.676299,0.38637 -1.301019,0.70248 -1.388268,0.70248 -0.08725,0 -0.496939,-0.21507 -0.910426,-0.47792 -1.258246,-0.79988 -3.832167,-2.04874 -4.889227,-2.37224 -3.083454,-0.94365 -7.007853,-1.2609 -9.922073,-0.8021 -2.004745,0.31563 -4.319853,0.97766 -6.08466,1.73999 -0.799902,0.34553 -1.538219,0.62718 -1.640706,0.6259 -0.102493,-9.4e-4 -0.819921,-0.45822 -1.594296,-1.01541 -1.509767,-1.08633 -1.553473,-1.08999 -1.730815,-0.14467 -0.06831,0.36412 -0.03664,0.52846 0.118588,0.61532 0.116485,0.0652 0.546921,0.38344 0.956526,0.70721 l 0.744738,0.58869 -1.052587,0.56037 c -1.777501,0.94629 -3.048066,1.51461 -4.572134,2.04511 -0.803428,0.27965 -1.481296,0.52897 -1.506371,0.55406 -0.02507,0.025 -0.007,0.14613 0.04017,0.26904 0.07739,0.20168 0.157622,0.20238 0.823713,0.007 1.739878,-0.51015 2.57443,-0.8413 4.692033,-1.86182 l 2.242021,-1.08049 0.768677,0.58036 c 1.482085,1.11898 3.461788,2.41955 4.719007,3.10017 l 1.268851,0.6869 c 0,0 0.978053,0.43738 2.808553,1.20555 0,0 2.392151,0.54466 4.122686,0.57719 1.945502,0.0366 3.041006,-0.0866 5.001261,-0.71106 1.866368,-0.5946 2.676806,-0.94888 4.486838,-1.9614 0.853192,-0.47726 1.593903,-0.86777 1.646024,-0.86777 0.05212,0 0.945117,0.54074 1.984427,1.20163 1.325142,0.84265 0.85005,0.55211 1.740133,1.16667 1.263727,0.62495 2.779734,1.5251 2.779734,1.5251 l 1.072186,0.45895 c 3.208151,1.37325 6.900721,1.5414 10.2701,0.46767 2.486077,-0.79225 5.371202,-2.46828 7.311778,-4.24756 l 0.962956,-0.88292 0.959781,0.68489 c 4.668907,3.33166 7.384012,4.62462 9.693066,4.61592 1.127275,-0.005 2.044948,-0.41585 2.044948,-0.91724 0,-0.34567 -0.03878,-0.36365 -0.784687,-0.36365 H 91.51213 l 8.09e-4,-3.60243 c 4.05e-4,-1.98133 0.04161,-4.31322 0.09167,-5.18197 l 0.09103,-1.57954 0.928463,-0.15904 c 0.510657,-0.0875 1.028872,-0.25945 1.151597,-0.38217 0.202392,-0.2024 0.09764,-0.22309 -1.127141,-0.22273 z m -1.864081,9.27186 c -0.07356,1.78753 0.263064,1.91115 -0.616225,1.71215 -0.46706,-0.10572 -1.605057,-0.52598 -2.314033,-0.86435 l -0.907409,-0.43306 v -3.78132 -3.78133 l 0.820354,-0.36341 c 0.451194,-0.19988 1.269764,-0.45568 1.819047,-0.56846 0.29005,-0.0721 -0.0037,-0.004 0.886589,-0.20143 0.569439,-0.12224 0.489052,-0.33215 0.429776,1.05618 l -0.08644,2.02474 c 0,0 -0.159548,3.09392 -0.03167,5.20029 z m -5.855875,-0.91227 c -1.511316,-1.1512 -1.941712,-1.48723 -2.369248,-1.77367 l -0.892065,-0.69759 1.676752,-1.3137 c 0.922211,-0.72254 1.885405,-1.4439 2.140428,-1.60302 l 0.463679,-0.28929 0.0092,1.83305 c 0.0051,1.00818 0.05312,1.65786 0.07333,2.97442 0.07732,2.10159 0.185681,1.885 -1.102141,0.8698 z m -8.39669,-0.1504 -1.355369,0.93239 -0.03814,-1.18257 c -0.02099,-0.65042 0.01112,-1.7401 0.07133,-2.42152 l 0.10946,-1.23895 1.92247,0.9326 1.922465,0.93261 -0.638433,0.55653 c -0.351141,0.3061 -1.248355,0.9761 -1.993805,1.48891 z m -2.5324,1.47254 c -0.917256,0.46142 -3.288122,1.30348 -3.670003,1.30348 -0.23039,0 -0.244181,-0.27368 -0.197074,-3.91158 0.02787,-2.15137 0.09844,-3.95936 0.156862,-4.01776 0.208022,-0.20795 2.492536,0.32033 4.352232,1.00642 0.133635,0.0493 0.17834,0.71009 0.17834,2.63628 v 2.57049 z m -4.606065,-2.15151 -0.01145,3.59766 -1.882177,-0.002 c -1.035193,-9.4e-4 -1.969884,-0.0578 -2.077083,-0.12567 -0.159269,-0.10089 -0.184922,-0.84227 -0.140286,-4.05441 0.03005,-2.16201 0.08779,-3.9641 0.128323,-4.00463 0.161448,-0.16145 2.023327,-0.26107 3.061339,-0.16381 l 1.101061,0.10318 -0.08413,0.5261 c -0.04627,0.28937 -0.08929,2.14505 -0.09559,4.12377 z m -4.917173,-0.46845 c 0,1.17703 0.01828,1.92277 0.079,2.75075 0.05798,1.24038 0.116077,1.17803 -0.956266,0.7751 -0.709563,-0.3294 -0.46021,-0.17581 -1.329376,-0.54044 l -1.580303,-0.66294 0.03874,-2.65236 0.03874,-2.65235 1.426703,-0.45839 c 0.784688,-0.25211 1.66568,-0.50279 1.957764,-0.55706 l 0.457734,-0.0882 -0.02972,0.96768 c -0.01662,0.54072 -0.103046,1.94119 -0.103046,3.11822 z m -5.029129,1.56304 c -0.372725,-0.21457 -1.310784,-0.81454 -2.084573,-1.33326 l -1.406891,-0.94312 1.8349,-0.88394 2.033916,-0.97821 0.01675,1.5489 c 0.0087,0.80189 0.01756,1.63559 0.02305,1.99621 0.01343,0.87684 -0.04445,0.80797 -0.417167,0.59342 z m -8.594343,-2.00059 c -0.626902,0.3616 -1.301018,0.71874 -1.498039,0.79365 l -0.358214,0.13618 v -1.7085 c 0,-0.93968 0.03632,-1.70851 0.08071,-1.70851 0.18198,0 2.91536,1.67323 2.91536,1.78462 0,0.0247 -0.512921,0.34097 -1.139821,0.70256 z m -3.603966,1.63383 c -1.087136,0.35843 -2.741217,0.72386 -3.298446,0.72869 -0.145709,9.4e-4 -0.05677,-6.35717 0.09099,-6.50493 0.156554,-0.15655 2.549659,0.51209 3.89173,1.08737 l 0.635424,0.27237 v 1.9907 1.99068 z m -4.10177,-1.94012 v 2.71176 l -1.03436,-0.0878 c -0.568897,-0.0483 -1.499823,-0.19307 -2.068719,-0.32175 l -1.034361,-0.23396 8.09e-4,-2.16024 c 4.05e-4,-1.18814 0.04194,-2.59361 0.09197,-3.12327 l 0.09095,-0.96303 h 1.602242 c 0.881235,0 1.810295,0.0416 2.064583,0.0925 0.456416,0.0913 0.461216,0.10068 0.374513,0.73326 -0.04829,0.35245 -0.08782,1.86109 -0.08782,3.35256 z m -4.915146,-0.64721 c -0.0037,1.35356 -0.04622,2.46104 -0.0942,2.46105 -0.04796,2e-5 -0.866538,-0.39374 -1.819044,-0.87501 l -1.731829,-0.87505 v -1.81084 -1.81086 l 1.391034,-0.23745 c 0.765068,-0.1306 0.905269,-0.1943 1.655439,-0.254 0.778847,-0.0864 0.833594,-0.24966 0.770169,0.38895 -0.06377,1.10493 -0.167535,1.58987 -0.171571,3.01321 z m -5.036106,-0.18891 c -0.21579,-0.14159 -0.762844,-0.47828 -1.215681,-0.74822 -0.452837,-0.26993 -0.854829,-0.54174 -0.893314,-0.60401 -0.05592,-0.0905 2.249988,-1.08011 2.513739,-1.08011 0.03846,0 0.01775,0.58643 0.04449,1.19457 0.02673,0.60813 -0.002,1.36092 0.01391,1.46804 0.0214,0.14524 -0.170519,-0.0383 -0.463137,-0.23027 z"
         id="path971-8"
         inkscape:connector-curvature="0"
         sodipodi:nodetypes="cscscsccscscssccsccccccscssccsccsscscccccscccsscccccscccssccccccscccccccccccccccccccccccscccscccccccscccccccccccccccscccccccscscccssscccccccccccccccccsccccccsccccccccccscccc" />
      <path
         sodipodi:nodetypes="ccccccscccccscscccccssssscccccscscccscc"
         style="fill:#00ab4e;fill-opacity:1;stroke-width:1.15557885"
         d="m 72.487768,132.60919 c -0.164273,-0.78495 -0.798132,-2.67574 -1.048604,-3.12797 l -0.186426,-0.33658 -0.497186,0.62192 c -1.02704,1.2847 -1.829449,3.13412 -1.830868,4.21985 -0.0012,0.92578 0.435944,1.89703 1.05647,2.34721 0.306032,0.22203 0.693005,0.40369 0.859945,0.40369 0.365458,0 1.104871,-1.0358 1.309192,-1.33649 0.422056,-0.62111 0.557403,-1.74072 0.337477,-2.79163 z m -4.127322,2.84409 c -0.06608,-0.1177 -0.294725,-0.64851 -0.508088,-1.17957 -0.213364,-0.53106 -0.519272,-1.13253 -0.679794,-1.3366 -0.466781,-0.59342 -1.703986,-1.30459 -3.056834,-1.75712 -1.391693,-0.46552 -4.417966,-1.09901 -4.56202,-0.95496 -0.263924,0.26393 1.90876,4.33371 2.683619,5.02684 0.167702,0.15001 0.461371,0.51901 0.652604,0.82002 0.744011,1.17105 2.6656,1.5919 4.357849,0.95441 1.075579,-0.40518 1.461796,-0.95119 1.112664,-1.57302 z m -7.260106,11.2935 c -0.617767,-1.32892 -3.110606,-1.25219 -3.659861,-1.16288 -0.549254,0.0893 -1.223373,0.29601 -1.498039,0.45931 -1.273016,0.75688 -2.489619,2.27034 -3.758664,4.67579 -0.671167,1.27218 -1.805524,3.7451 -1.805524,3.93607 0,0.29013 3.993774,-0.44193 5.496266,-1.00746 1.576852,-0.59353 3.245273,-1.53386 3.924529,-2.21188 1.170641,-1.16851 1.532577,-2.47268 1.301293,-4.68895 z m -19.124853,0.26187 c -0.394972,-1.23692 -1.158901,-1.88567 -1.849783,-1.57089 -0.290337,0.13229 -0.381631,0.12938 -0.429312,-0.0136 -0.03332,-0.0999 -0.208664,-0.32979 -0.389674,-0.5108 -0.280652,-0.28066 -0.475327,-0.32912 -1.321992,-0.32912 -2.095565,0 -3.521593,1.24237 -5.467754,4.76354 -0.298753,0.54054 -0.543184,1.01553 -0.543184,1.05556 0,0.14117 2.434566,-0.10123 3.386833,-0.33723 1.086934,-0.26937 2.670007,-0.94429 3.075369,-1.31114 0.254351,-0.23019 0.280072,-0.22847 0.47019,0.0315 0.492936,0.62787 0.940615,3.07393 1.068606,3.07393 0.177496,0 1.247158,-1.62055 1.632145,-2.47272 0.379273,-0.83951 0.536358,-1.8535 0.368556,-2.379 z"
         id="path973-6"
         inkscape:connector-curvature="0" />
    </g>
  </g>
</svg>
