<?xml version="1.0" encoding="UTF-8" standalone="no"?>
<svg
   xmlns:dc="http://purl.org/dc/elements/1.1/"
   xmlns:cc="http://creativecommons.org/ns#"
   xmlns:rdf="http://www.w3.org/1999/02/22-rdf-syntax-ns#"
   xmlns:svg="http://www.w3.org/2000/svg"
   xmlns="http://www.w3.org/2000/svg"
   id="svg1762"
   version="1.1"
   viewBox="0 0 53.097077 26.673151"
   height="26.673151mm"
   width="53.097076mm">
  <defs
     id="defs1756" />
  <metadata
     id="metadata1759">
    <rdf:RDF>
      <cc:Work
         rdf:about="">
        <dc:format>image/svg+xml</dc:format>
        <dc:type
           rdf:resource="http://purl.org/dc/dcmitype/StillImage" />
        <dc:title></dc:title>
      </cc:Work>
    </rdf:RDF>
  </metadata>
  <g
     transform="translate(-27.170127,-109.95451)"
     id="layer1">
    <path
       style="fill:#f2f2f2;fill-opacity:1;stroke-width:1.13556254"
       d="m 61.283281,129.22172 c -0.09274,0 -0.528191,0.29477 -0.967682,0.65504 -1.337377,1.09631 -4.07317,2.808 -5.196708,3.25139 -3.27737,1.29336 -7.448573,1.72818 -10.546066,1.09934 -2.130822,-0.43259 -4.591526,-1.33997 -6.467321,-2.38482 -0.850207,-0.47358 -1.634956,-0.85962 -1.743889,-0.85786 -0.108938,0.002 -0.871485,0.62803 -1.69456,1.39172 -1.604715,1.48893 -1.65117,1.49394 -1.839665,0.19828 -0.07261,-0.49906 -0.03894,-0.7243 0.126046,-0.84336 0.123811,-0.0893 0.581317,-0.52553 1.016681,-0.96929 l 0.791575,-0.80685 -1.118784,-0.76804 c -1.889287,-1.29699 -3.239757,-2.07593 -4.859673,-2.80303 -0.853955,-0.38329 -1.574454,-0.72502 -1.601105,-0.75938 -0.02665,-0.0344 -0.0074,-0.20031 0.04269,-0.36875 0.08226,-0.27644 0.167535,-0.27739 0.875516,-0.01 1.849298,0.6992 2.736335,1.15308 4.987112,2.55181 l 2.383021,1.48091 0.817018,-0.79544 c 1.575293,-1.53368 3.679498,-3.31623 5.015783,-4.24908 l 1.348648,-0.94147 c 0,0 1.039562,-0.59947 2.985181,-1.65232 0,0 2.542592,-0.7465 4.38196,-0.7911 2.067853,-0.0501 3.232253,0.11863 5.315787,0.97458 1.983743,0.81495 2.845148,1.30053 4.769012,2.68829 0.906849,0.65414 1.179745,1.1505 1.179745,1.1505 0.0554,0 0.09241,3.5586 -3.22e-4,3.5586 z m -3.054285,-2.43122 c -0.666328,-0.4956 -1.382838,-0.98509 -1.59225,-1.08776 l -0.380742,-0.18666 v 2.34168 c 0,1.28792 0.0386,2.34168 0.08579,2.34168 0.193425,0 3.098705,-2.29332 3.098705,-2.44601 0,-0.034 -0.545178,-0.46732 -1.211503,-0.96293 z m -3.830617,-2.23931 c -1.155506,-0.49127 -2.913611,-0.99212 -3.505884,-0.99875 -0.154872,-0.002 -0.06034,8.71313 0.09671,8.91564 0.1664,0.21458 2.710006,-0.70186 4.136479,-1.49033 l 0.675385,-0.37332 v -2.72844 -2.72843 z m -4.359728,2.65911 v -3.71672 l -1.09941,0.12032 c -0.604675,0.0662 -1.594146,0.26463 -2.19882,0.441 l -1.099411,0.32066 8.6e-4,2.96082 c 4.3e-4,1.62846 0.04458,3.55479 0.09775,4.28075 l 0.09667,1.31992 h 1.703006 c 0.936655,0 1.924144,-0.057 2.194423,-0.12673 0.48512,-0.12512 0.490222,-0.138 0.398066,-1.00502 -0.05133,-0.48305 -0.09334,-2.5508 -0.09334,-4.595 z m -5.224257,0.88709 c -0.0039,-1.8552 -0.04913,-3.37311 -0.100122,-3.37313 -0.05098,-2e-5 -0.921034,0.53966 -1.933442,1.1993 l -1.840743,1.19933 v 2.48195 2.48196 l 1.478515,0.32544 c 0.813183,0.17899 0.962201,0.2663 1.759549,0.34814 0.827828,0.11843 0.886018,0.34218 0.818604,-0.5331 -0.06778,-1.51442 -0.178071,-2.17907 -0.182361,-4.12989 z m -5.352823,0.25891 c -0.229361,0.19405 -0.810819,0.65553 -1.292135,1.0255 -0.481315,0.36998 -0.908589,0.74251 -0.949494,0.82786 -0.05944,0.12401 2.391489,1.4804 2.671827,1.4804 0.04088,0 0.01887,-0.80377 0.04729,-1.63727 0.02841,-0.83351 -0.0021,-1.86529 0.01479,-2.01209 0.02274,-0.19908 -0.181243,0.0525 -0.492264,0.3156 z"
       id="path971-8-0-1-6" />
    <path
       style="fill:#00ab4e;fill-opacity:1;stroke-width:1.13556254"
       d="m 48.793779,119.90537 c -0.419812,1.69532 -1.231784,2.5845 -1.966115,2.15305 -0.308596,-0.18131 -0.405631,-0.17732 -0.456311,0.0187 -0.03542,0.13696 -0.221787,0.45201 -0.414181,0.7001 -0.298301,0.38466 -0.50522,0.45109 -1.405131,0.45109 -2.227354,0 -3.743064,-1.70278 -5.811617,-6.5289 -0.317542,-0.74086 -0.577345,-1.39188 -0.577345,-1.44674 0,-0.1935 2.587674,0.13874 3.599829,0.4622 1.155291,0.3692 2.837922,1.29425 3.268777,1.79705 0.270347,0.3155 0.297686,0.31313 0.49976,-0.0432 0.523936,-0.86054 0.99977,-4.2131 1.13581,-4.2131 0.188659,0 1.325591,2.22111 1.73479,3.38909 0.403125,1.15064 0.570089,2.5404 0.391734,3.26066 z"
       id="path973-6-3-8-3" />
    <g
       id="flowRoot969-5-7-5-0"
       style="font-style:normal;font-variant:normal;font-weight:normal;font-stretch:normal;font-size:13.33333302px;line-height:125%;font-family:Helvetica;-inkscape-font-specification:'Helvetica, Normal';font-variant-ligatures:normal;font-variant-caps:normal;font-variant-numeric:normal;font-feature-settings:normal;text-align:start;letter-spacing:0px;word-spacing:0px;writing-mode:lr-tb;text-anchor:start;fill:#f9f9f9;fill-opacity:1;stroke:none;stroke-width:0.53993624px;stroke-linecap:butt;stroke-linejoin:miter;stroke-opacity:1"
       transform="matrix(0.49002701,0,0,0.49002701,-389.33841,-36.470994)"
       aria-label="K">
      <path
         id="path2330"
         style="font-size:74.66666412px;line-height:125%;fill:#f9f9f9;fill-opacity:1;stroke-width:0.53993624px"
         d="m 958.32598,353.24309 -22.4,-32.256 22.176,-22.176 h -8.96 l -27.104,27.552 v -27.552 h -6.944 v 54.432 h 6.944 v -19.04 l 8.88533,-8.88533 19.18933,27.92533 z" />
    </g>
  </g>
</svg>
