<?xml version="1.0" encoding="UTF-8" standalone="no"?>
<!-- Created with Inkscape (http://www.inkscape.org/) -->

<svg
   xmlns:dc="http://purl.org/dc/elements/1.1/"
   xmlns:cc="http://creativecommons.org/ns#"
   xmlns:rdf="http://www.w3.org/1999/02/22-rdf-syntax-ns#"
   xmlns:svg="http://www.w3.org/2000/svg"
   xmlns="http://www.w3.org/2000/svg"
   xmlns:sodipodi="http://sodipodi.sourceforge.net/DTD/sodipodi-0.dtd"
   xmlns:inkscape="http://www.inkscape.org/namespaces/inkscape"
   width="210mm"
   height="297mm"
   viewBox="0 0 210 297"
   version="1.1"
   id="svg8"
   inkscape:version="0.92.2 (unknown)"
   sodipodi:docname="logo.svg">
  <defs
     id="defs2" />
  <sodipodi:namedview
     id="base"
     pagecolor="#ffffff"
     bordercolor="#666666"
     borderopacity="1.0"
     inkscape:pageopacity="0.0"
     inkscape:pageshadow="2"
     inkscape:zoom="1.8058844"
     inkscape:cx="184.98434"
     inkscape:cy="810.66075"
     inkscape:document-units="mm"
     inkscape:current-layer="layer1"
     showgrid="false"
     inkscape:window-width="1871"
     inkscape:window-height="1056"
     inkscape:window-x="49"
     inkscape:window-y="24"
     inkscape:window-maximized="1"
     inkscape:snap-grids="false">
    <inkscape:grid
       type="xygrid"
       id="grid916" />
  </sodipodi:namedview>
  <metadata
     id="metadata5">
    <rdf:RDF>
      <cc:Work
         rdf:about="">
        <dc:format>image/svg+xml</dc:format>
        <dc:type
           rdf:resource="http://purl.org/dc/dcmitype/StillImage" />
        <dc:title></dc:title>
      </cc:Work>
    </rdf:RDF>
  </metadata>
  <g
     inkscape:label="Layer 1"
     inkscape:groupmode="layer"
     id="layer1">
    <flowRoot
       xml:space="preserve"
       id="flowRoot969"
       style="font-style:normal;font-variant:normal;font-weight:normal;font-stretch:normal;font-size:13.33333302px;line-height:125%;font-family:Helvetica;-inkscape-font-specification:'Helvetica, Normal';font-variant-ligatures:normal;font-variant-caps:normal;font-variant-numeric:normal;font-feature-settings:normal;text-align:start;letter-spacing:0px;word-spacing:0px;writing-mode:lr-tb;text-anchor:start;fill:#4b515d;fill-opacity:1;stroke:none;stroke-width:0.53993624px;stroke-linecap:butt;stroke-linejoin:miter;stroke-opacity:1;"
       transform="matrix(0.49002701,0,0,0.49002701,-440.13839,-102.65366)"><flowRegion
         id="flowRegion965"
         style="fill:#4b515d;fill-opacity:1;stroke-width:0.53993624px;"><rect
           id="rect963"
           width="270.17438"
           height="115.11777"
           x="909.1955"
           y="285.3707"
           style="fill:#4b515d;fill-opacity:1;stroke-width:0.53993624px;" /></flowRegion><flowPara
         id="flowPara967"
         style="font-size:74.66666412px;line-height:125%;fill:#4b515d;fill-opacity:1;stroke-width:0.53993624px;">Kipoi</flowPara></flowRoot>    <path
       sodipodi:nodetypes="cscscsccscscssccsccccccscssccsccsscscccccscccsscccccscccssccccccscccccccccccccccccccccccscccscccccccscccccccccccccccscccccccscscccssscccccccccccccccccsccccccsccccccccccscccc"
       inkscape:connector-curvature="0"
       id="path971"
       d="m 8.8874092,23.263947 c 2.9767088,8.59e-4 5.1827678,0.473341 7.4559958,1.596802 1.117207,0.552138 3.705186,2.325902 4.684654,3.210785 0.304074,0.274715 0.593134,0.499481 0.642356,0.499481 0.04922,0 0.644595,-0.377983 1.323046,-0.839959 2.242085,-1.526684 3.575701,-2.039947 7.577954,-3.302538 1.448047,-0.456818 1.958537,-0.585198 3.343,-0.79559 0.445543,0.01083 1.611224,-0.324075 4.38107,0.134716 1.661345,0.185727 0.803379,0.08133 3.201531,0.557374 2.553733,0.506931 5.112332,2.106591 7.284798,3.347703 0.718831,0.410656 1.382839,0.746651 1.475575,0.746651 0.09274,0 0.528191,-0.228592 0.967682,-0.507975 1.337377,-0.850186 4.07317,-2.177586 5.196708,-2.52143 3.27737,-1.002998 7.448573,-1.340193 10.546066,-0.852532 2.130822,0.33547 4.591526,1.03914 6.467321,1.849409 0.850207,0.367258 1.634956,0.66663 1.743889,0.665263 0.108938,-0.0013 0.871485,-0.487033 1.69456,-1.079267 1.604715,-1.154655 1.65117,-1.158537 1.839665,-0.153767 0.07261,0.387022 0.03894,0.561689 -0.126046,0.654021 -0.123811,0.06929 -0.581317,0.407544 -1.016681,0.751681 l -0.791575,0.625703 1.118784,0.595613 c 1.889287,1.005806 3.239757,1.60987 4.859673,2.173726 0.853955,0.297244 1.574454,0.562248 1.601105,0.588899 0.02665,0.02665 0.0074,0.155336 -0.04269,0.285964 -0.08226,0.214373 -0.167535,0.215108 -0.875516,0.0075 -1.849298,-0.542226 -2.736335,-0.894207 -4.987112,-1.978912 l -2.383021,-1.148439 -0.817018,0.616857 c -1.575293,1.189357 -3.679498,2.571718 -5.015783,3.295131 l -1.348648,0.730106 c 0,0 -1.039562,0.464886 -2.985181,1.281363 0,0 -2.542592,0.578909 -4.38196,0.613491 -2.067853,0.03886 -3.232253,-0.09199 -5.315787,-0.755777 -1.983743,-0.631992 -2.845148,-1.008552 -4.769012,-2.08475 -0.906849,-0.507283 -1.694143,-0.922337 -1.749542,-0.922337 -0.0554,0 -1.004555,0.57474 -2.109226,1.277194 -1.40848,0.895647 -0.903509,0.586836 -1.849569,1.240041 -1.343202,0.664248 -2.95455,1.621011 -2.95455,1.621011 L 41.63431,35.774966 C 38.2244,37.23459 34.299607,37.41331 30.71833,36.272054 28.075905,35.42998 25.009336,33.648551 22.946719,31.757368 l -1.023516,-0.938447 -1.020141,0.727961 C 15.94053,35.08807 13.054674,36.462341 10.600405,36.453104 9.402236,36.44859 8.4268514,36.01109 8.4268514,35.47817 c 0,-0.367412 0.041223,-0.386519 0.8340359,-0.386519 h 0.8340317 l -8.6e-4,-3.82898 c -4.3e-4,-2.105937 -0.04423,-4.584476 -0.097439,-5.507862 L 9.8998687,24.075927 8.9130156,23.906887 C 8.370244,23.813914 7.8194385,23.631123 7.6889951,23.50068 7.473875,23.28556 7.5852113,23.26356 8.8870223,23.263947 Z m 1.9813108,9.85496 c 0.07819,1.899944 -0.279607,2.031346 0.65498,1.819819 0.496433,-0.112359 1.705998,-0.559054 2.459561,-0.918696 l 0.964475,-0.460299 v -4.01913 -4.019133 L 14.075791,25.13521 c -0.47957,-0.212446 -1.349619,-0.484337 -1.933446,-0.604206 -0.308291,-0.07657 0.0039,-0.0039 -0.942346,-0.214106 -0.605251,-0.129927 -0.519809,-0.353034 -0.456805,1.122601 l 0.09188,2.152074 c 0,0 0.169582,3.288494 0.03366,5.527334 z m 6.224148,-0.96965 c 1.606362,-1.223591 2.063825,-1.580756 2.518248,-1.885204 l 0.948167,-0.741467 -1.782202,-1.396318 c -0.980208,-0.767981 -2.003977,-1.534697 -2.275038,-1.703823 l -0.49284,-0.307496 -0.0098,1.948336 c -0.0054,1.071582 -0.05646,1.762124 -0.07794,3.161478 -0.08218,2.233759 -0.197359,2.003551 1.171454,0.924494 z m 8.924753,-0.159845 1.440607,0.991014 0.04054,-1.256939 c 0.02231,-0.691316 -0.01182,-1.849526 -0.07582,-2.573803 l -0.116344,-1.31686 -2.043373,0.99125 -2.043368,0.991255 0.678584,0.591534 c 0.373224,0.325343 1.326863,1.03749 2.119194,1.582549 z m 2.691661,1.565143 c 0.974941,0.490433 3.49491,1.385452 3.900807,1.385452 0.244879,0 0.259537,-0.290882 0.209468,-4.157576 -0.02962,-2.286666 -0.104635,-4.20836 -0.166727,-4.270431 -0.221104,-0.22103 -2.64929,0.340466 -4.625941,1.069708 -0.14204,0.0524 -0.189556,0.754754 -0.189556,2.802077 v 2.732143 z m 4.895737,-2.286816 0.01217,3.823912 2.000546,-0.0022 c 1.100296,-0.0013 2.093769,-0.06138 2.20771,-0.133568 0.169285,-0.107244 0.196551,-0.895238 0.149108,-4.309392 -0.03194,-2.297979 -0.09331,-4.213397 -0.136393,-4.256481 -0.171601,-0.171602 -2.150573,-0.277492 -3.253865,-0.174108 l -1.170306,0.109668 0.08942,0.559192 c 0.04918,0.307556 0.0949,2.279951 0.1016,4.383104 z m 5.226411,-0.497907 c 0,1.251053 -0.01943,2.043686 -0.08397,2.923742 -0.06163,1.31839 -0.123377,1.25212 1.016405,0.823848 0.754187,-0.35012 0.489152,-0.186874 1.41298,-0.57443 l 1.679687,-0.704641 -0.04118,-2.819159 -0.04118,-2.81916 -1.516428,-0.487213 c -0.834036,-0.267966 -1.770433,-0.53441 -2.080886,-0.592097 l -0.486521,-0.09375 0.03159,1.028541 c 0.01767,0.574714 0.109527,2.063266 0.109527,3.314316 z m 5.345408,1.661331 c 0.396166,-0.228063 1.393219,-0.865759 2.215671,-1.417102 l 1.495369,-1.002439 -1.950296,-0.939527 -2.161827,-1.039725 -0.0178,1.646296 c -0.0092,0.852335 -0.01866,1.738469 -0.0245,2.121769 -0.01427,0.93197 0.04724,0.858778 0.443402,0.630728 z m 9.134836,-2.126398 c 0.666328,0.384336 1.382838,0.763935 1.59225,0.843552 l 0.380742,0.144758 v -1.815959 c 0,-0.998777 -0.0386,-1.815958 -0.08579,-1.815958 -0.193425,0 -3.098705,1.778458 -3.098705,1.896865 0,0.02635 0.545178,0.362405 1.211503,0.746742 z m 3.830617,1.736573 c 1.155506,0.380975 2.913611,0.769382 3.505884,0.774527 0.154872,0.0013 0.06034,-6.756973 -0.09671,-6.914024 -0.1664,-0.166405 -2.710006,0.544293 -4.136479,1.155747 l -0.675385,0.289506 v 2.115884 2.115881 z m 4.359728,-2.062123 v 2.882296 l 1.09941,-0.09331 c 0.604675,-0.05132 1.594146,-0.205216 2.19882,-0.341991 l 1.099411,-0.248674 -8.6e-4,-2.296097 c -4.3e-4,-1.262857 -0.04458,-2.756714 -0.09775,-3.319689 l -0.09667,-1.023588 h -1.703006 c -0.936655,0 -1.924144,0.04423 -2.194423,0.09828 -0.48512,0.09703 -0.490222,0.107016 -0.398066,0.77938 0.05133,0.374604 0.09334,1.978129 0.09334,3.563394 z m 5.224257,-0.687929 c 0.0039,1.438694 0.04913,2.615822 0.100122,2.615839 0.05098,1.7e-5 0.921034,-0.418506 1.933442,-0.930048 l 1.840743,-0.930078 v -1.924733 -1.924738 l -1.478515,-0.252379 c -0.813183,-0.138804 -0.962201,-0.206515 -1.759549,-0.269983 -0.827828,-0.09184 -0.886018,-0.265357 -0.818604,0.41342 0.06778,1.174416 0.178071,1.689853 0.182361,3.2027 z m 5.352823,-0.200788 c 0.229361,-0.150484 0.810819,-0.508358 1.292135,-0.795268 0.481315,-0.28691 0.908589,-0.57581 0.949494,-0.641999 0.05944,-0.09617 -2.391489,-1.148039 -2.671827,-1.148039 -0.04088,0 -0.01887,0.623321 -0.04729,1.269696 -0.02841,0.646379 0.0021,1.446513 -0.01479,1.560359 -0.02274,0.154382 0.181243,-0.04071 0.492264,-0.244749 z"
       style="fill:#4b515d;fill-opacity:1;stroke-width:1.00000012" />
    <path
       inkscape:connector-curvature="0"
       id="path973"
       d="m 30.315712,20.339112 c 0.174603,-0.834319 0.848325,-2.844026 1.11455,-3.324688 l 0.19815,-0.35775 0.528453,0.661038 c 1.09163,1.365489 1.944502,3.331217 1.946011,4.485227 0.0013,0.983999 -0.463361,2.016331 -1.122911,2.494835 -0.325278,0.23599 -0.736588,0.429071 -0.914027,0.429071 -0.388441,0 -1.174355,-1.10094 -1.391526,-1.420541 -0.448599,-0.660173 -0.592458,-1.850192 -0.3587,-2.967192 z m 4.386886,3.022949 c 0.07024,-0.125105 0.31326,-0.689292 0.540042,-1.253754 0.226782,-0.564457 0.551928,-1.203753 0.722545,-1.420657 0.496137,-0.630741 1.811149,-1.386625 3.249077,-1.867618 1.479216,-0.494804 4.695809,-1.168131 4.848923,-1.015021 0.280522,0.280526 -2.028801,4.606253 -2.852391,5.34297 -0.178248,0.159445 -0.490386,0.551661 -0.693646,0.871588 -0.790801,1.244705 -2.833237,1.692023 -4.631911,1.014445 -1.143221,-0.430666 -1.553727,-1.011015 -1.182639,-1.671953 z m 7.71669,12.003742 c 0.656618,-1.412494 3.30623,-1.330947 3.890027,-1.236014 0.583797,0.09494 1.300311,0.314627 1.59225,0.488202 1.353075,0.804483 2.64619,2.413119 3.995044,4.969844 0.713376,1.35219 1.919072,3.980628 1.919072,4.183609 0,0.308377 -4.24494,-0.469723 -5.841922,-1.070825 -1.67602,-0.630853 -3.449367,-1.630314 -4.171341,-2.350976 -1.244262,-1.242001 -1.628959,-2.628188 -1.38313,-4.98384 z m 20.327603,0.278338 c 0.419812,-1.314711 1.231784,-2.00426 1.966115,-1.669679 0.308596,0.140605 0.405631,0.137514 0.456311,-0.01453 0.03542,-0.106213 0.221787,-0.350529 0.414181,-0.542922 0.298301,-0.298306 0.50522,-0.349819 1.405131,-0.349819 2.227354,0 3.743064,1.320496 5.811617,5.063122 0.317542,0.574525 0.577345,1.079392 0.577345,1.121935 0,0.150057 -2.587674,-0.107597 -3.599829,-0.358438 -1.155291,-0.286312 -2.837922,-1.003677 -3.268777,-1.393597 -0.270347,-0.244664 -0.297686,-0.242829 -0.49976,0.03353 -0.523936,0.667348 -0.99977,3.267234 -1.13581,3.267234 -0.188659,0 -1.325591,-1.722457 -1.73479,-2.628218 -0.403125,-0.892311 -0.570089,-1.970065 -0.391734,-2.528617 z"
       style="fill:#00ab4e;fill-opacity:1;stroke-width:1.00000012"
       sodipodi:nodetypes="ccccccscccccscscccccssssscccccscscccscc" />
    <flowRoot
       transform="matrix(0.49002701,0,0,0.49002701,-440.13839,-102.65366)"
       style="font-style:normal;font-variant:normal;font-weight:normal;font-stretch:normal;font-size:13.33333302px;line-height:125%;font-family:Helvetica;-inkscape-font-specification:'Helvetica, Normal';font-variant-ligatures:normal;font-variant-caps:normal;font-variant-numeric:normal;font-feature-settings:normal;text-align:start;letter-spacing:0px;word-spacing:0px;writing-mode:lr-tb;text-anchor:start;fill:none;fill-opacity:0;stroke:none;stroke-width:0.53993624px;stroke-linecap:butt;stroke-linejoin:miter;stroke-opacity:1;"
       id="flowRoot1167"
       xml:space="preserve"><flowRegion
         style="fill:none;fill-opacity:0;stroke-width:0.53993624px;"
         id="flowRegion1163"><rect
           style="fill:none;fill-opacity:0;stroke-width:0.53993624px;"
           y="285.3707"
           x="909.1955"
           height="115.11777"
           width="270.17438"
           id="rect1161" /></flowRegion><flowPara
         style="font-size:74.66666412px;line-height:125%;fill:none;fill-opacity:0;stroke-width:0.53993624px;"
         id="flowPara1165">Kipoi</flowPara></flowRoot>    <text
       xml:space="preserve"
       style="font-style:normal;font-variant:normal;font-weight:normal;font-stretch:normal;font-size:3.52777767px;line-height:125%;font-family:'Droid Sans';-inkscape-font-specification:'Droid Sans';font-variant-ligatures:normal;font-variant-caps:normal;font-variant-numeric:normal;font-feature-settings:normal;text-align:start;letter-spacing:0px;word-spacing:0px;writing-mode:lr-tb;text-anchor:start;fill:#000000;fill-opacity:1;stroke:none;stroke-width:0.26458332px;stroke-linecap:butt;stroke-linejoin:miter;stroke-opacity:1"
       x="179.99109"
       y="202.45428"
       id="text999"><tspan
         sodipodi:role="line"
         id="tspan997"
         x="179.99109"
         y="205.58006"
         style="stroke-width:0.26458332px"></tspan></text>
    <g
       inkscape:transform-center-y="-1.868285"
       inkscape:transform-center-x="1.1355038"
       id="g1088"
       transform="matrix(-0.01509289,-0.23114417,0.23114417,-0.01509289,137.04698,318.30172)"
       style="stroke-width:4.31711102" />
    <g
       id="g1390"
       transform="translate(-102.35628,149.18324)">
      <g
         style="stroke-width:4.08700752"
         transform="matrix(0.28071726,0,0,0.24467781,138.88512,12.591143)"
         id="g1135"
         inkscape:transform-center-x="-1.0854837"
         inkscape:transform-center-y="-3.826484">
        <g
           style="stroke-width:4.08700752"
           id="g1133"
           transform="translate(-198.00998,-85.679937)">
          <path
             sodipodi:nodetypes="cscscsccscscssccsccccccscssccsccsscscccccscccsscccccscccssccccccscccccccccccccccccccccccscccscccccccscccccccccccccccscccccccscscccssscccccccccccccccccsccccccsccccccccccscccc"
             inkscape:connector-curvature="0"
             id="path1129"
             d="m 260.34047,330.80621 c 0.002,-6.92494 1.10117,-12.05706 3.71476,-17.34544 1.28448,-2.59904 5.41092,-8.61965 7.46949,-10.89826 0.63909,-0.70739 1.16198,-1.37985 1.16198,-1.49436 0,-0.11451 -0.87933,-1.49957 -1.95406,-3.0779 -3.55164,-5.21593 -4.74568,-8.31842 -7.68294,-17.62916 -1.06273,-3.3687 -1.36139,-4.55629 -1.85084,-7.77707 0.0252,-1.0365 -0.75392,-3.74831 0.3134,-10.19201 0.43207,-3.86491 0.1892,-1.86896 1.29666,-7.44796 1.17931,-5.94094 4.90072,-11.8932 7.78801,-16.94717 0.95534,-1.67227 1.73699,-3.217 1.73699,-3.43274 0,-0.21574 -0.53179,-1.22877 -1.18174,-2.25119 -1.97785,-3.11124 -5.06588,-9.47572 -5.86579,-12.08949 -2.33335,-7.62439 -3.11779,-17.32817 -1.98331,-24.5341 0.78043,-4.95709 2.41743,-10.68161 4.30242,-15.04541 0.85438,-1.9779 1.55083,-3.80352 1.54765,-4.05694 -0.003,-0.25343 -1.13302,-2.0274 -2.51078,-3.94218 -2.68616,-3.73317 -2.69519,-3.84124 -0.35772,-4.27975 0.90036,-0.16891 1.3067,-0.0906 1.5215,0.29323 0.1612,0.28803 0.9481,1.35236 1.74869,2.36518 l 1.45562,1.8415 1.38562,-2.60271 c 2.33988,-4.39519 3.74516,-7.53689 5.0569,-11.30542 0.6915,-1.98662 1.308,-3.66277 1.37,-3.72477 0.062,-0.062 0.36137,-0.0173 0.66526,0.0993 0.49871,0.19137 0.50042,0.38975 0.0175,2.03678 -1.26142,4.30216 -2.08026,6.36574 -4.60369,11.60189 l -2.6717,5.5438 1.43504,1.90069 c 2.76689,3.66472 5.98278,8.55989 7.66571,11.66859 l 1.6985,3.13746 c 0,0 1.0815,2.41841 2.98093,6.94465 0,0 1.34676,5.91502 1.42721,10.19408 0.0904,4.8106 -0.21401,7.51943 -1.75822,12.36651 -1.47025,4.61493 -2.34627,6.61888 -4.84991,11.09451 -1.18013,2.10967 -2.1457,3.94121 -2.1457,4.07009 0,0.12889 1.33706,2.33697 2.97123,4.90685 2.08361,3.27665 1.3652,2.1019 2.8848,4.30279 1.54529,3.12479 3.77108,6.87339 3.77108,6.87339 l 1.13482,2.65117 c 3.39558,7.93274 3.81135,17.06328 1.15636,25.39467 -1.95898,6.14727 -6.10325,13.28126 -10.50285,18.07968 l -2.18318,2.38108 1.69351,2.37323 c 8.23813,11.54471 11.4352,18.25829 11.41371,23.96784 -0.0105,2.78739 -1.02829,5.0565 -2.26806,5.0565 -0.85474,0 -0.89919,-0.0959 -0.89919,-1.94028 v -1.94027 l -8.90764,0.002 c -4.8992,10e-4 -10.66521,0.10289 -12.81335,0.22668 l -3.90571,0.22508 -0.39325,2.29579 c -0.21629,1.26269 -0.64153,2.54407 -0.94499,2.84753 -0.50045,0.50045 -0.55163,0.24144 -0.55073,-2.78706 z m 22.92633,-4.60927 c 4.41998,-0.1819 4.72567,0.65047 4.23358,-1.52373 -0.26139,-1.15489 -1.30057,-3.96879 -2.13723,-5.72186 l -1.07083,-2.24373 h -9.35 -9.35001 l -0.89858,2.02847 c -0.49423,1.11566 -1.12675,3.13972 -1.40561,4.49792 -0.17813,0.7172 -0.009,-0.009 -0.49809,2.19225 -0.30226,1.40804 -0.82129,1.20927 2.61159,1.0627 l 5.00653,-0.21376 c 0,0 7.65027,-0.39451 12.85865,-0.0783 z m -2.25577,-14.4797 c -2.84653,-3.737 -3.67743,-4.80123 -4.38569,-5.85839 l -1.72493,-2.20579 -3.24836,4.14607 c -1.78661,2.28033 -3.57028,4.662 -3.96373,5.29259 l -0.71535,1.14653 4.53256,0.0229 c 2.4929,0.0126 4.09936,0.13135 7.35478,0.18133 5.19656,0.19118 4.66101,0.45913 2.15072,-2.72524 z m -0.37186,-20.76232 2.30547,-3.35139 -2.92411,-0.0943 c -1.60826,-0.0519 -4.30269,0.0275 -5.98763,0.17639 l -3.06351,0.27066 2.30602,4.75365 2.30603,4.75364 1.37613,-1.57864 c 0.75687,-0.86826 2.41359,-3.08678 3.6816,-4.93004 z m 3.64111,-6.26181 c 1.14093,-2.26808 3.22308,-8.13047 3.22308,-9.07474 0,-0.56968 -0.6767,-0.60378 -9.67208,-0.4873 -5.31964,0.0689 -9.79022,0.24342 -9.93462,0.38787 -0.5142,0.51437 0.79205,6.16324 2.48854,10.76167 0.12191,0.33044 1.75584,0.44098 6.51868,0.44098 h 6.35599 z m -5.31999,-11.38932 8.89585,-0.0283 -0.005,-4.65402 c -0.003,-2.5597 -0.1428,-4.87089 -0.31073,-5.13596 -0.24949,-0.39382 -2.08266,-0.45725 -10.02526,-0.34688 -5.34596,0.0743 -9.80194,0.21707 -9.90217,0.3173 -0.39921,0.39921 -0.64555,5.00304 -0.40504,7.56971 l 0.25513,2.72257 1.30089,-0.20802 c 0.71549,-0.11441 5.30402,-0.22078 10.19674,-0.23636 z m -1.15832,-12.15859 c 2.91042,0 4.75438,0.0452 6.80172,0.19534 3.06707,0.14337 2.9129,0.28702 1.91658,-2.36454 -0.81451,-1.75452 -0.43474,-1.13795 -1.33634,-3.28712 l -1.63926,-3.90758 -6.55842,0.0958 -6.55842,0.0958 -1.13344,3.52778 c -0.62339,1.94028 -1.24324,4.11869 -1.37744,4.84092 l -0.21809,1.13183 2.39277,-0.0735 c 1.337,-0.0411 4.79993,-0.2548 7.71034,-0.2548 z m 3.86488,-12.43542 c -0.53056,-0.92163 -2.01408,-3.24115 -3.29671,-5.15448 l -2.33205,-3.47879 -2.18569,4.53712 -2.41879,5.02922 3.8299,0.0414 c 1.98285,0.0214 4.04433,0.0434 4.93603,0.057 2.16811,0.0332 1.99784,-0.1099 1.46731,-1.03152 z m -4.9468,-21.25105 c 0.89411,-1.55013 1.7772,-3.217 1.96242,-3.70417 l 0.33676,-0.88575 h -4.2246 c -2.32353,0 -4.2246,0.0898 -4.2246,0.19958 0,0.44998 4.13736,7.20875 4.41282,7.20875 0.0613,0 0.84309,-1.26829 1.7372,-2.81841 z m 4.03992,-8.91145 c 0.88629,-2.68814 1.78987,-6.77815 1.80184,-8.156 0.003,-0.36029 -15.71925,-0.14037 -16.08461,0.22499 -0.38712,0.38711 1.26623,6.30449 2.6887,9.623 l 0.6735,1.5712 h 4.92234 4.92233 z m -4.79727,-10.14236 h 6.7053 l -0.21708,-2.55764 c -0.1194,-1.4067 -0.47741,-3.70858 -0.7956,-5.11528 l -0.57851,-2.55764 -5.34158,0.002 c -2.93788,0.001 -6.41315,0.10371 -7.72284,0.2274 l -2.38125,0.2249 v 3.96183 c 0,2.17901 0.10289,4.47628 0.22864,5.10505 0.22572,1.12857 0.24896,1.14044 1.81313,0.92605 0.87147,-0.11941 4.60187,-0.21714 8.28979,-0.21714 z m -1.60038,-12.15358 c 3.34694,-0.009 6.08538,-0.1143 6.08542,-0.23292 4e-5,-0.11861 -0.9736,-2.14267 -2.16364,-4.49791 l -2.16371,-4.28226 h -4.47765 -4.47766 l -0.58713,3.43958 c -0.32291,1.89177 -0.48043,2.23844 -0.62808,4.09337 -0.21365,1.92584 -0.61732,2.06121 0.96177,1.90438 2.73213,-0.15768 3.93123,-0.41426 7.45068,-0.42424 z m -0.46711,-12.45267 c -0.35008,-0.53358 -1.18263,-1.88627 -1.85009,-3.00599 -0.66746,-1.11972 -1.33955,-2.11372 -1.49353,-2.20888 -0.22373,-0.13828 -2.67077,5.5635 -2.67077,6.21567 0,0.0951 1.45008,0.0439 2.95379,0.11002 1.50372,0.0661 3.36513,-0.005 3.62998,0.0344 0.35915,0.0529 -0.0947,-0.42164 -0.56938,-1.14519 z"
             style="fill:#58595b;fill-opacity:1;stroke-width:4.08700752" />
          <path
             inkscape:connector-curvature="0"
             id="path1131"
             d="m 253.53621,280.95595 c -1.94094,-0.40619 -6.61627,-1.97352 -7.73447,-2.59286 l -0.83226,-0.46097 1.53782,-1.22938 c 3.17664,-2.53954 7.74966,-4.52364 10.43432,-4.52715 2.28915,-0.003 4.69074,1.07795 5.80392,2.61231 0.549,0.75672 0.99818,1.71358 0.99818,2.12637 0,0.90366 -2.5612,2.73199 -3.30471,3.23721 -1.53581,1.04361 -4.30424,1.37828 -6.9028,0.83447 z m 7.03251,-10.20554 c -0.29104,-0.16341 -1.60355,-0.72876 -2.9167,-1.25634 -1.31314,-0.52758 -2.80038,-1.28399 -3.30498,-1.68091 -1.46734,-1.1542 -3.22581,-4.21341 -4.34478,-7.55857 -1.1511,-3.44121 -2.71751,-10.92421 -2.36132,-11.28041 0.65261,-0.6526 10.71587,4.71975 12.42975,6.63573 0.37093,0.41467 1.28337,1.14082 2.02764,1.61368 2.89565,1.8397 3.93628,6.59117 2.35998,10.77556 -1.00189,2.65956 -2.352,3.61455 -3.88959,2.75126 z m 27.9252,-17.95191 c -3.28599,-1.52754 -3.09628,-7.69153 -2.87543,-9.04966 0.22086,-1.35813 0.73194,-3.02501 1.13574,-3.70417 1.87153,-3.14776 5.61382,-6.15603 11.56172,-9.29397 3.1457,-1.65958 9.26043,-4.46448 9.73264,-4.46448 0.7174,0 -1.09275,9.87532 -2.49114,13.5905 -1.4676,3.89905 -3.79272,8.02452 -5.46925,9.7041 -2.88936,2.89462 -6.11415,3.78957 -11.59428,3.21768 z m 0.64752,-47.28962 c -3.05851,-0.97664 -4.66266,-2.86559 -3.8843,-4.57392 0.3271,-0.71791 0.31991,-0.94365 -0.0338,-1.06155 -0.24709,-0.0824 -0.81546,-0.51596 -1.26304,-0.96354 -0.69397,-0.69396 -0.81381,-1.17533 -0.81381,-3.26886 0,-5.18166 3.07197,-8.70777 11.77872,-13.52 1.33656,-0.73872 2.51107,-1.34312 2.61004,-1.34312 0.34909,0 -0.25031,6.0199 -0.83386,8.37455 -0.66607,2.68764 -2.33493,6.60207 -3.24203,7.6044 -0.56918,0.62893 -0.56491,0.69253 0.078,1.16263 1.5525,1.21887 7.60081,2.32584 7.60081,2.64232 0,0.43889 -4.00708,3.08382 -6.11422,4.03577 -2.07585,0.93782 -4.58311,1.32624 -5.88251,0.91132 z"
             style="fill:#00ab4e;fill-opacity:1;stroke-width:4.08700752"
             sodipodi:nodetypes="ccccccscccccscscccccssssscccccscscccscc" />
        </g>
      </g>
      <flowRoot
         transform="matrix(0.76114429,0,0,0.76114429,-575.0464,-196.33947)"
         style="font-style:normal;font-variant:normal;font-weight:normal;font-stretch:normal;font-size:13.33333302px;line-height:125%;font-family:Helvetica;-inkscape-font-specification:'Helvetica, Normal';font-variant-ligatures:normal;font-variant-caps:normal;font-variant-numeric:normal;font-feature-settings:normal;text-align:start;letter-spacing:0px;word-spacing:0px;writing-mode:lr-tb;text-anchor:start;fill:#58595b;fill-opacity:1;stroke:none;stroke-width:0.34761259px;stroke-linecap:butt;stroke-linejoin:miter;stroke-opacity:1"
         id="flowRoot1143"
         xml:space="preserve"><flowRegion
           style="fill:#58595b;fill-opacity:1;stroke-width:0.34761259px"
           id="flowRegion1139"><rect
             style="fill:#58595b;fill-opacity:1;stroke-width:0.34761259px"
             y="285.3707"
             x="909.1955"
             height="115.11777"
             width="270.17438"
             id="rect1137" /></flowRegion><flowPara
           style="font-size:74.66666412px;line-height:125%;fill:#58595b;fill-opacity:1;stroke-width:0.34761259px"
           id="flowPara1141">K</flowPara></flowRoot>    </g>
    <g
       id="g1372"
       transform="translate(-15.747119,-217.97328)">
      <g
         inkscape:transform-center-y="-3.826484"
         inkscape:transform-center-x="-0.94612163"
         id="g1151"
         transform="matrix(0.24467781,0,0,0.24467781,43.608394,308.26403)"
         style="stroke-width:4.08700752">
        <g
           transform="translate(-198.00998,-85.679937)"
           id="g1149"
           style="stroke-width:4.08700752">
          <path
             style="fill:#58595b;fill-opacity:1;stroke-width:4.08700752"
             d="m 260.34047,330.80621 c 0.002,-6.92494 1.10117,-12.05706 3.71476,-17.34544 1.28448,-2.59904 5.41092,-8.61965 7.46949,-10.89826 0.63909,-0.70739 1.16198,-1.37985 1.16198,-1.49436 0,-0.11451 -0.87933,-1.49957 -1.95406,-3.0779 -3.55164,-5.21593 -4.74568,-8.31842 -7.68294,-17.62916 -1.06273,-3.3687 -1.36139,-4.55629 -1.85084,-7.77707 0.0252,-1.0365 -0.75392,-3.74831 0.3134,-10.19201 0.43207,-3.86491 0.1892,-1.86896 1.29666,-7.44796 1.17931,-5.94094 4.90072,-11.8932 7.78801,-16.94717 0.95534,-1.67227 1.73699,-3.217 1.73699,-3.43274 0,-0.21574 -0.53179,-1.22877 -1.18174,-2.25119 -1.97785,-3.11124 -5.06588,-9.47572 -5.86579,-12.08949 -2.33335,-7.62439 -3.11779,-17.32817 -1.98331,-24.5341 0.78043,-4.95709 2.41743,-10.68161 4.30242,-15.04541 0.85438,-1.9779 1.55083,-3.80352 1.54765,-4.05694 -0.003,-0.25343 -1.13302,-2.0274 -2.51078,-3.94218 -2.68616,-3.73317 -2.69519,-3.84124 -0.35772,-4.27975 0.90036,-0.16891 1.3067,-0.0906 1.5215,0.29323 0.1612,0.28803 0.9481,1.35236 1.74869,2.36518 l 1.45562,1.8415 1.38562,-2.60271 c 2.33988,-4.39519 3.74516,-7.53689 5.0569,-11.30542 0.6915,-1.98662 1.308,-3.66277 1.37,-3.72477 0.062,-0.062 0.36137,-0.0173 0.66526,0.0993 0.49871,0.19137 0.50042,0.38975 0.0175,2.03678 -1.26142,4.30216 -2.08026,6.36574 -4.60369,11.60189 l -2.6717,5.5438 1.43504,1.90069 c 2.76689,3.66472 5.98278,8.55989 7.66571,11.66859 l 1.6985,3.13746 c 0,0 1.0815,2.41841 2.98093,6.94465 0,0 1.34676,5.91502 1.42721,10.19408 0.0904,4.8106 -0.21401,7.51943 -1.75822,12.36651 -1.47025,4.61493 -2.34627,6.61888 -4.84991,11.09451 -1.18013,2.10967 -2.1457,3.94121 -2.1457,4.07009 0,0.12889 1.33706,2.33697 2.97123,4.90685 2.08361,3.27665 1.3652,2.1019 2.8848,4.30279 1.54529,3.12479 3.77108,6.87339 3.77108,6.87339 l 1.13482,2.65117 c 3.39558,7.93274 3.81135,17.06328 1.15636,25.39467 -1.95898,6.14727 -6.10325,13.28126 -10.50285,18.07968 l -2.18318,2.38108 1.69351,2.37323 c 8.23813,11.54471 11.4352,18.25829 11.41371,23.96784 -0.0105,2.78739 -1.02829,5.0565 -2.26806,5.0565 -0.85474,0 -0.89919,-0.0959 -0.89919,-1.94028 v -1.94027 l -8.90764,0.002 c -4.8992,10e-4 -10.66521,0.10289 -12.81335,0.22668 l -3.90571,0.22508 -0.39325,2.29579 c -0.21629,1.26269 -0.64153,2.54407 -0.94499,2.84753 -0.50045,0.50045 -0.55163,0.24144 -0.55073,-2.78706 z m 22.92633,-4.60927 c 4.41998,-0.1819 4.72567,0.65047 4.23358,-1.52373 -0.26139,-1.15489 -1.30057,-3.96879 -2.13723,-5.72186 l -1.07083,-2.24373 h -9.35 -9.35001 l -0.89858,2.02847 c -0.49423,1.11566 -1.12675,3.13972 -1.40561,4.49792 -0.17813,0.7172 -0.009,-0.009 -0.49809,2.19225 -0.30226,1.40804 -0.82129,1.20927 2.61159,1.0627 l 5.00653,-0.21376 c 0,0 7.65027,-0.39451 12.85865,-0.0783 z m -2.25577,-14.4797 c -2.84653,-3.737 -3.67743,-4.80123 -4.38569,-5.85839 l -1.72493,-2.20579 -3.24836,4.14607 c -1.78661,2.28033 -3.57028,4.662 -3.96373,5.29259 l -0.71535,1.14653 4.53256,0.0229 c 2.4929,0.0126 4.09936,0.13135 7.35478,0.18133 5.19656,0.19118 4.66101,0.45913 2.15072,-2.72524 z m -0.37186,-20.76232 2.30547,-3.35139 -2.92411,-0.0943 c -1.60826,-0.0519 -4.30269,0.0275 -5.98763,0.17639 l -3.06351,0.27066 2.30602,4.75365 2.30603,4.75364 1.37613,-1.57864 c 0.75687,-0.86826 2.41359,-3.08678 3.6816,-4.93004 z m 3.64111,-6.26181 c 1.14093,-2.26808 3.22308,-8.13047 3.22308,-9.07474 0,-0.56968 -0.6767,-0.60378 -9.67208,-0.4873 -5.31964,0.0689 -9.79022,0.24342 -9.93462,0.38787 -0.5142,0.51437 0.79205,6.16324 2.48854,10.76167 0.12191,0.33044 1.75584,0.44098 6.51868,0.44098 h 6.35599 z m -5.31999,-11.38932 8.89585,-0.0283 -0.005,-4.65402 c -0.003,-2.5597 -0.1428,-4.87089 -0.31073,-5.13596 -0.24949,-0.39382 -2.08266,-0.45725 -10.02526,-0.34688 -5.34596,0.0743 -9.80194,0.21707 -9.90217,0.3173 -0.39921,0.39921 -0.64555,5.00304 -0.40504,7.56971 l 0.25513,2.72257 1.30089,-0.20802 c 0.71549,-0.11441 5.30402,-0.22078 10.19674,-0.23636 z m -1.15832,-12.15859 c 2.91042,0 4.75438,0.0452 6.80172,0.19534 3.06707,0.14337 2.9129,0.28702 1.91658,-2.36454 -0.81451,-1.75452 -0.43474,-1.13795 -1.33634,-3.28712 l -1.63926,-3.90758 -6.55842,0.0958 -6.55842,0.0958 -1.13344,3.52778 c -0.62339,1.94028 -1.24324,4.11869 -1.37744,4.84092 l -0.21809,1.13183 2.39277,-0.0735 c 1.337,-0.0411 4.79993,-0.2548 7.71034,-0.2548 z m 3.86488,-12.43542 c -0.53056,-0.92163 -2.01408,-3.24115 -3.29671,-5.15448 l -2.33205,-3.47879 -2.18569,4.53712 -2.41879,5.02922 3.8299,0.0414 c 1.98285,0.0214 4.04433,0.0434 4.93603,0.057 2.16811,0.0332 1.99784,-0.1099 1.46731,-1.03152 z m -4.9468,-21.25105 c 0.89411,-1.55013 1.7772,-3.217 1.96242,-3.70417 l 0.33676,-0.88575 h -4.2246 c -2.32353,0 -4.2246,0.0898 -4.2246,0.19958 0,0.44998 4.13736,7.20875 4.41282,7.20875 0.0613,0 0.84309,-1.26829 1.7372,-2.81841 z m 4.03992,-8.91145 c 0.88629,-2.68814 1.78987,-6.77815 1.80184,-8.156 0.003,-0.36029 -15.71925,-0.14037 -16.08461,0.22499 -0.38712,0.38711 1.26623,6.30449 2.6887,9.623 l 0.6735,1.5712 h 4.92234 4.92233 z m -4.79727,-10.14236 h 6.7053 l -0.21708,-2.55764 c -0.1194,-1.4067 -0.47741,-3.70858 -0.7956,-5.11528 l -0.57851,-2.55764 -5.34158,0.002 c -2.93788,0.001 -6.41315,0.10371 -7.72284,0.2274 l -2.38125,0.2249 v 3.96183 c 0,2.17901 0.10289,4.47628 0.22864,5.10505 0.22572,1.12857 0.24896,1.14044 1.81313,0.92605 0.87147,-0.11941 4.60187,-0.21714 8.28979,-0.21714 z m -1.60038,-12.15358 c 3.34694,-0.009 6.08538,-0.1143 6.08542,-0.23292 4e-5,-0.11861 -0.9736,-2.14267 -2.16364,-4.49791 l -2.16371,-4.28226 h -4.47765 -4.47766 l -0.58713,3.43958 c -0.32291,1.89177 -0.48043,2.23844 -0.62808,4.09337 -0.21365,1.92584 -0.61732,2.06121 0.96177,1.90438 2.73213,-0.15768 3.93123,-0.41426 7.45068,-0.42424 z m -0.46711,-12.45267 c -0.35008,-0.53358 -1.18263,-1.88627 -1.85009,-3.00599 -0.66746,-1.11972 -1.33955,-2.11372 -1.49353,-2.20888 -0.22373,-0.13828 -2.67077,5.5635 -2.67077,6.21567 0,0.0951 1.45008,0.0439 2.95379,0.11002 1.50372,0.0661 3.36513,-0.005 3.62998,0.0344 0.35915,0.0529 -0.0947,-0.42164 -0.56938,-1.14519 z"
             id="path1145"
             inkscape:connector-curvature="0"
             sodipodi:nodetypes="cscscsccscscssccsccccccscssccsccsscscccccscccsscccccscccssccccccscccccccccccccccccccccccscccscccccccscccccccccccccccscccccccscscccssscccccccccccccccccsccccccsccccccccccscccc" />
          <path
             sodipodi:nodetypes="ccccccscccccscscccccssssscccccscscccscc"
             style="fill:#00ab4e;fill-opacity:1;stroke-width:4.08700752"
             d="m 253.53621,280.95595 c -1.94094,-0.40619 -6.61627,-1.97352 -7.73447,-2.59286 l -0.83226,-0.46097 1.53782,-1.22938 c 3.17664,-2.53954 7.74966,-4.52364 10.43432,-4.52715 2.28915,-0.003 4.69074,1.07795 5.80392,2.61231 0.549,0.75672 0.99818,1.71358 0.99818,2.12637 0,0.90366 -2.5612,2.73199 -3.30471,3.23721 -1.53581,1.04361 -4.30424,1.37828 -6.9028,0.83447 z m 7.03251,-10.20554 c -0.29104,-0.16341 -1.60355,-0.72876 -2.9167,-1.25634 -1.31314,-0.52758 -2.80038,-1.28399 -3.30498,-1.68091 -1.46734,-1.1542 -3.22581,-4.21341 -4.34478,-7.55857 -1.1511,-3.44121 -2.71751,-10.92421 -2.36132,-11.28041 0.65261,-0.6526 10.71587,4.71975 12.42975,6.63573 0.37093,0.41467 1.28337,1.14082 2.02764,1.61368 2.89565,1.8397 3.93628,6.59117 2.35998,10.77556 -1.00189,2.65956 -2.352,3.61455 -3.88959,2.75126 z m 27.9252,-17.95191 c -3.28599,-1.52754 -3.09628,-7.69153 -2.87543,-9.04966 0.22086,-1.35813 0.73194,-3.02501 1.13574,-3.70417 1.87153,-3.14776 5.61382,-6.15603 11.56172,-9.29397 3.1457,-1.65958 9.26043,-4.46448 9.73264,-4.46448 0.7174,0 -1.09275,9.87532 -2.49114,13.5905 -1.4676,3.89905 -3.79272,8.02452 -5.46925,9.7041 -2.88936,2.89462 -6.11415,3.78957 -11.59428,3.21768 z m 0.64752,-47.28962 c -3.05851,-0.97664 -4.66266,-2.86559 -3.8843,-4.57392 0.3271,-0.71791 0.31991,-0.94365 -0.0338,-1.06155 -0.24709,-0.0824 -0.81546,-0.51596 -1.26304,-0.96354 -0.69397,-0.69396 -0.81381,-1.17533 -0.81381,-3.26886 0,-5.18166 3.07197,-8.70777 11.77872,-13.52 1.33656,-0.73872 2.51107,-1.34312 2.61004,-1.34312 0.34909,0 -0.25031,6.0199 -0.83386,8.37455 -0.66607,2.68764 -2.33493,6.60207 -3.24203,7.6044 -0.56918,0.62893 -0.56491,0.69253 0.078,1.16263 1.5525,1.21887 7.60081,2.32584 7.60081,2.64232 0,0.43889 -4.00708,3.08382 -6.11422,4.03577 -2.07585,0.93782 -4.58311,1.32624 -5.88251,0.91132 z"
             id="path1147"
             inkscape:connector-curvature="0" />
        </g>
      </g>
      <flowRoot
         xml:space="preserve"
         id="flowRoot1159"
         style="font-style:normal;font-variant:normal;font-weight:normal;font-stretch:normal;font-size:13.33333302px;line-height:125%;font-family:Helvetica;-inkscape-font-specification:'Helvetica, Normal';font-variant-ligatures:normal;font-variant-caps:normal;font-variant-numeric:normal;font-feature-settings:normal;text-align:start;letter-spacing:0px;word-spacing:0px;writing-mode:lr-tb;text-anchor:start;fill:#58595b;fill-opacity:1;stroke:none;stroke-width:0.34761259px;stroke-linecap:butt;stroke-linejoin:miter;stroke-opacity:1"
         transform="matrix(0.76114429,0,0,0.76114429,-672.01551,99.862582)"><flowRegion
           id="flowRegion1155"
           style="fill:#58595b;fill-opacity:1;stroke-width:0.34761259px"><rect
             id="rect1153"
             width="270.17438"
             height="115.11777"
             x="909.1955"
             y="285.3707"
             style="fill:#58595b;fill-opacity:1;stroke-width:0.34761259px" /></flowRegion><flowPara
           id="flowPara1157"
           style="font-size:74.66666412px;line-height:125%;fill:#58595b;fill-opacity:1;stroke-width:0.34761259px">K</flowPara></flowRoot>      <flowRoot
         transform="matrix(0.49002701,0,0,0.49002701,-375.1629,194.99504)"
         style="font-style:normal;font-variant:normal;font-weight:normal;font-stretch:normal;font-size:13.33333302px;line-height:125%;font-family:Helvetica;-inkscape-font-specification:'Helvetica, Normal';font-variant-ligatures:normal;font-variant-caps:normal;font-variant-numeric:normal;font-feature-settings:normal;text-align:start;letter-spacing:0px;word-spacing:0px;writing-mode:lr-tb;text-anchor:start;fill:#58595b;fill-opacity:1;stroke:none;stroke-width:0.53993624px;stroke-linecap:butt;stroke-linejoin:miter;stroke-opacity:1"
         id="flowRoot1167-0"
         xml:space="preserve"><flowRegion
           style="fill:#58595b;fill-opacity:1;stroke-width:0.53993624px"
           id="flowRegion1163-7"><rect
             style="fill:#58595b;fill-opacity:1;stroke-width:0.53993624px"
             y="285.3707"
             x="909.1955"
             height="115.11777"
             width="270.17438"
             id="rect1161-4" /></flowRegion><flowPara
           style="font-size:74.66666412px;line-height:125%;fill:#58595b;fill-opacity:1;stroke-width:0.53993624px"
           id="flowPara1165-7">poi</flowPara></flowRoot>    </g>
    <text
       xml:space="preserve"
       style="font-style:normal;font-variant:normal;font-weight:normal;font-stretch:normal;font-size:3.52777767px;line-height:125%;font-family:'Droid Sans';-inkscape-font-specification:'Droid Sans';font-variant-ligatures:normal;font-variant-caps:normal;font-variant-numeric:normal;font-feature-settings:normal;text-align:start;letter-spacing:0px;word-spacing:0px;writing-mode:lr-tb;text-anchor:start;fill:#000000;fill-opacity:1;stroke:none;stroke-width:0.26458332px;stroke-linecap:butt;stroke-linejoin:miter;stroke-opacity:1"
       x="-305.33057"
       y="54.376499"
       id="text2015"><tspan
         sodipodi:role="line"
         id="tspan2013"
         x="-305.33057"
         y="57.502285"
         style="stroke-width:0.26458332px" /></text>
    <flowRoot
       xml:space="preserve"
       id="flowRoot2017"
       style="font-style:normal;font-variant:normal;font-weight:normal;font-stretch:normal;font-size:13.33333302px;line-height:125%;font-family:'Droid Sans';-inkscape-font-specification:'Droid Sans';font-variant-ligatures:normal;font-variant-caps:normal;font-variant-numeric:normal;font-feature-settings:normal;text-align:start;letter-spacing:0px;word-spacing:0px;writing-mode:lr-tb;text-anchor:start;fill:#000000;fill-opacity:1;stroke:none;stroke-width:1px;stroke-linecap:butt;stroke-linejoin:miter;stroke-opacity:1"
       transform="matrix(0.44112408,0,0,0.44112408,-109.765,-3.9412638)"><flowRegion
         id="flowRegion2019"><rect
           id="rect2021"
           width="240.32545"
           height="263.58276"
           x="503.9082"
           y="27.211498" /></flowRegion><flowPara
         id="flowPara2023"
         style="font-size:21.33333397px">TODO:</flowPara><flowPara
         style="font-size:21.33333397px"
         id="flowPara2025">- [ ] choose the colors</flowPara><flowPara
         style="font-size:21.33333397px"
         id="flowPara2027">- [ ] make the logo's</flowPara><flowPara
         style="font-size:21.33333397px"
         id="flowPara2029">  - [ ] main logo</flowPara><flowPara
         style="font-size:21.33333397px"
         id="flowPara2033">  - [ ]  favicon</flowPara></flowRoot>  </g>
</svg>
